<svg width="613" height="351" viewBox="0 0 613 351" fill="none" xmlns="http://www.w3.org/2000/svg">
   <style>
      #test, #row1, #row2, #row3, #row4, #row5{
         transition: all .25s ease-in-out;
      }
      #test:hover, #row1:hover, #row2:hover, #row3:hover, #row4:hover, #row5:hover {
         fill: #e5e9fb;
      }

   </style>
<g clip-path="url(#clip0_1_2)">
<mask id="path-1-inside-1_1_2" fill="white">
<path d="M151.661 217.878L153.201 218.628L156.831 216.098L158.521 218.388L161.321 216.378L162.081 217.998L163.761 217.818L163.081 218.808L166.751 219.648L168.351 217.288L170.671 218.218L171.251 216.448L172.651 217.208L174.171 214.338L173.701 212.738L174.971 213.058L176.381 211.458L179.461 211.898L179.391 215.788L182.011 215.848L182.471 214.818L184.151 215.968L183.801 214.488L186.351 215.678L190.571 214.598L191.791 215.378L193.351 211.098L197.661 210.608L199.911 213.628L200.521 212.918L203.091 214.388L202.851 216.108L203.691 215.278L206.011 216.128L207.861 213.808L210.291 214.668L209.621 211.678L211.471 213.998L212.961 212.988L214.881 215.448L216.031 213.458L223.531 215.448L226.151 213.678L225.501 217.238L230.191 217.068L231.331 219.288L231.621 217.128L234.571 214.448L239.371 213.018L238.101 210.388L238.801 206.258L240.321 206.538L239.991 205.148L241.791 204.508L242.231 202.858L243.311 205.128H244.011L246.391 205.538L249.281 209.258L250.221 207.498L252.141 207.708L253.421 212.358L255.771 213.628L256.661 213.358L257.141 212.788L258.061 216.378L254.771 216.348L254.261 217.678L257.221 222.038L255.891 223.288L256.601 225.768L254.261 229.738L255.521 230.208L253.151 236.878L257.231 239.768L254.591 242.918L261.361 250.938L262.501 251.178L265.971 247.988L268.911 251.428L272.701 251.728L272.361 254.558L270.061 253.998L272.211 255.678L274.421 254.768L275.881 258.358H276.751L278.241 259.058L280.501 256.288L286.421 258.818L286.061 260.558L287.351 259.198L294.151 259.008L294.951 262.248L293.701 265.928L301.601 272.628L303.151 270.568L305.541 272.438L308.711 272.468L309.991 270.828L311.671 271.638L312.431 270.208L314.521 271.138L315.021 272.878L313.521 272.998L316.781 274.448L315.971 275.218L317.671 276.858L316.631 277.238L317.201 278.538L313.271 278.288L313.381 280.418L312.121 280.858L312.841 282.928L310.791 283.678L311.541 285.328L307.361 289.178L307.961 290.308L309.241 289.058L310.641 289.638L310.681 292.108L315.691 293.508L315.111 294.868L316.251 295.888L314.551 296.778L313.861 298.638L314.811 298.768L313.021 299.318L312.161 301.458L309.811 300.758L308.591 297.588L305.631 295.458L304.511 296.368L301.731 295.508L296.441 291.348L290.161 291.548L288.491 289.538L286.931 295.208L283.591 294.308L280.411 296.638L277.801 296.738L278.591 294.128L276.861 291.498L277.391 289.768L269.371 288.918L268.731 286.678L262.901 286.748L263.041 289.968L261.101 293.038L262.511 301.958L261.811 306.008L260.651 306.208L261.841 310.448L260.721 310.498L259.031 316.558L261.451 319.138L261.091 320.548L259.231 321.988L253.121 320.348L252.451 318.948L246.021 319.138L245.901 325.318L238.561 331.698L237.231 336.698L238.021 343.438L236.241 346.008L232.921 346.078L231.441 342.258L229.261 342.708L228.101 339.688L223.581 343.008L222.101 341.578L218.271 341.278L215.311 337.038L212.961 337.748L214.011 340.218L211.731 345.168L207.831 344.528L208.011 347.388L205.171 347.058L203.021 350.138L202.171 348.518L197.401 346.148L194.711 346.678L190.151 344.548L184.741 343.898L183.321 345.058L181.501 344.648L181.551 343.608L178.891 344.248L179.041 342.668L176.611 341.808L177.101 339.708L175.501 339.968L173.781 338.238L175.081 336.358L177.621 336.368L178.231 333.458L175.931 333.118L173.131 328.788L168.891 328.098L161.441 320.728L155.881 319.798L156.061 316.578L154.081 312.228L151.481 311.458L149.151 304.508L147.151 305.648L143.161 305.338L138.731 297.288L139.381 295.908L137.461 297.418L134.921 292.948L132.241 293.298L130.961 290.828L131.641 286.208L134.151 281.918L135.621 282.718L137.071 281.178L136.531 276.668L134.891 274.388L136.461 273.908L135.701 271.388L136.661 269.418L135.651 268.708L139.421 270.108L141.941 266.898L145.191 266.348L144.341 266.018L144.991 263.048L147.461 261.908L145.011 258.508V257.928L145.601 255.998L146.601 256.298L146.201 255.138L148.001 255.348L148.321 253.318L146.351 253.278L145.711 250.318L148.151 250.518L148.891 248.538L147.511 247.648L147.741 245.988L152.251 244.038L151.971 241.718L153.891 238.538L151.031 233.768L151.471 230.558L153.611 228.888L151.591 226.388L152.011 221.948L150.141 221.648L150.471 220.598V220.098L151.661 217.878Z" id="test"/>
</mask>
<path d="M151.661 217.878L153.201 218.628L156.831 216.098L158.521 218.388L161.321 216.378L162.081 217.998L163.761 217.818L163.081 218.808L166.751 219.648L168.351 217.288L170.671 218.218L171.251 216.448L172.651 217.208L174.171 214.338L173.701 212.738L174.971 213.058L176.381 211.458L179.461 211.898L179.391 215.788L182.011 215.848L182.471 214.818L184.151 215.968L183.801 214.488L186.351 215.678L190.571 214.598L191.791 215.378L193.351 211.098L197.661 210.608L199.911 213.628L200.521 212.918L203.091 214.388L202.851 216.108L203.691 215.278L206.011 216.128L207.861 213.808L210.291 214.668L209.621 211.678L211.471 213.998L212.961 212.988L214.881 215.448L216.031 213.458L223.531 215.448L226.151 213.678L225.501 217.238L230.191 217.068L231.331 219.288L231.621 217.128L234.571 214.448L239.371 213.018L238.101 210.388L238.801 206.258L240.321 206.538L239.991 205.148L241.791 204.508L242.231 202.858L243.311 205.128H244.011L246.391 205.538L249.281 209.258L250.221 207.498L252.141 207.708L253.421 212.358L255.771 213.628L256.661 213.358L257.141 212.788L258.061 216.378L254.771 216.348L254.261 217.678L257.221 222.038L255.891 223.288L256.601 225.768L254.261 229.738L255.521 230.208L253.151 236.878L257.231 239.768L254.591 242.918L261.361 250.938L262.501 251.178L265.971 247.988L268.911 251.428L272.701 251.728L272.361 254.558L270.061 253.998L272.211 255.678L274.421 254.768L275.881 258.358H276.751L278.241 259.058L280.501 256.288L286.421 258.818L286.061 260.558L287.351 259.198L294.151 259.008L294.951 262.248L293.701 265.928L301.601 272.628L303.151 270.568L305.541 272.438L308.711 272.468L309.991 270.828L311.671 271.638L312.431 270.208L314.521 271.138L315.021 272.878L313.521 272.998L316.781 274.448L315.971 275.218L317.671 276.858L316.631 277.238L317.201 278.538L313.271 278.288L313.381 280.418L312.121 280.858L312.841 282.928L310.791 283.678L311.541 285.328L307.361 289.178L307.961 290.308L309.241 289.058L310.641 289.638L310.681 292.108L315.691 293.508L315.111 294.868L316.251 295.888L314.551 296.778L313.861 298.638L314.811 298.768L313.021 299.318L312.161 301.458L309.811 300.758L308.591 297.588L305.631 295.458L304.511 296.368L301.731 295.508L296.441 291.348L290.161 291.548L288.491 289.538L286.931 295.208L283.591 294.308L280.411 296.638L277.801 296.738L278.591 294.128L276.861 291.498L277.391 289.768L269.371 288.918L268.731 286.678L262.901 286.748L263.041 289.968L261.101 293.038L262.511 301.958L261.811 306.008L260.651 306.208L261.841 310.448L260.721 310.498L259.031 316.558L261.451 319.138L261.091 320.548L259.231 321.988L253.121 320.348L252.451 318.948L246.021 319.138L245.901 325.318L238.561 331.698L237.231 336.698L238.021 343.438L236.241 346.008L232.921 346.078L231.441 342.258L229.261 342.708L228.101 339.688L223.581 343.008L222.101 341.578L218.271 341.278L215.311 337.038L212.961 337.748L214.011 340.218L211.731 345.168L207.831 344.528L208.011 347.388L205.171 347.058L203.021 350.138L202.171 348.518L197.401 346.148L194.711 346.678L190.151 344.548L184.741 343.898L183.321 345.058L181.501 344.648L181.551 343.608L178.891 344.248L179.041 342.668L176.611 341.808L177.101 339.708L175.501 339.968L173.781 338.238L175.081 336.358L177.621 336.368L178.231 333.458L175.931 333.118L173.131 328.788L168.891 328.098L161.441 320.728L155.881 319.798L156.061 316.578L154.081 312.228L151.481 311.458L149.151 304.508L147.151 305.648L143.161 305.338L138.731 297.288L139.381 295.908L137.461 297.418L134.921 292.948L132.241 293.298L130.961 290.828L131.641 286.208L134.151 281.918L135.621 282.718L137.071 281.178L136.531 276.668L134.891 274.388L136.461 273.908L135.701 271.388L136.661 269.418L135.651 268.708L139.421 270.108L141.941 266.898L145.191 266.348L144.341 266.018L144.991 263.048L147.461 261.908L145.011 258.508V257.928L145.601 255.998L146.601 256.298L146.201 255.138L148.001 255.348L148.321 253.318L146.351 253.278L145.711 250.318L148.151 250.518L148.891 248.538L147.511 247.648L147.741 245.988L152.251 244.038L151.971 241.718L153.891 238.538L151.031 233.768L151.471 230.558L153.611 228.888L151.591 226.388L152.011 221.948L150.141 221.648L150.471 220.598V220.098L151.661 217.878Z" stroke="white" stroke-width="2" mask="url(#path-1-inside-1_1_2)"/>
<mask id="path-2-inside-2_1_2" fill="white">
<path d="M502.721 309.148L498.341 311.158L497.621 313.078L493.571 314.368L490.801 314.528L485.061 310.338L479.991 314.648L477.051 314.728L473.141 310.498L471.751 310.878L469.301 308.438L461.771 306.178L458.091 310.318L454.141 312.358L452.151 318.438L448.121 321.188L444.161 328.538L445.041 330.588L441.421 334.208L441.891 337.078L438.771 341.348L436.741 340.498L437.531 337.788L435.251 327.518L433.221 326.768L432.101 328.348L429.061 327.628L426.051 329.148L422.191 327.758L421.241 325.528L419.241 324.778L415.361 326.118L413.711 318.888L407.391 318.738L402.571 314.388L400.651 316.438L396.111 315.408L394.311 316.298L393.021 320.938L388.001 325.968L386.241 326.158L384.581 323.548L383.681 325.628L378.731 324.278L362.991 323.758L353.091 319.178L349.201 315.548L349.811 313.088L348.451 312.468L347.601 313.608L346.331 310.938L344.031 311.518L343.971 310.408L345.091 310.958L344.431 309.658L343.341 310.548L342.391 308.058L341.491 309.098L339.431 308.128L340.291 307.048L339.151 305.688L333.681 306.058L331.261 309.238L327.401 307.978L325.841 308.708L319.101 303.118H315.551L312.171 301.488L313.031 299.348L314.821 298.798L313.871 298.678L314.561 296.808L316.271 295.918L316.291 294.948L318.651 294.548L319.741 296.868L321.931 297.378L323.081 293.848L327.131 293.298L329.221 296.178L331.831 291.538L335.041 290.948L337.211 287.388L342.351 287.618L343.241 283.518L346.171 284.838L347.651 283.518L347.451 281.858L350.061 281.128L350.791 283.558L353.271 285.178L355.611 284.568L356.591 282.268L361.411 284.578L361.641 283.418L366.961 282.458L365.331 280.778L366.211 279.668L372.591 279.088L373.841 275.428L376.021 275.088L377.781 272.928L378.021 271.098L376.471 270.418L377.101 268.968L374.891 270.018L375.191 267.368L374.021 266.238L374.621 264.868L378.341 263.388L378.381 261.278L375.101 259.648L376.471 254.098L379.651 253.408L376.961 250.868L377.071 248.738L379.001 247.868L379.801 244.108L385.921 241.108H386.721L388.601 239.338L387.241 235.748L388.391 231.688L387.071 231.408L386.641 227.698L388.871 223.158L385.641 219.908L388.531 220.798L391.491 216.548L390.681 214.358L388.701 214.418L387.361 212.658L389.051 211.048L389.001 208.458L390.351 209.658L391.331 206.598L393.611 205.968L393.951 207.648L397.821 205.828L399.381 207.228L402.551 207.268L403.911 201.618L408.411 202.998L410.041 201.468L412.521 203.198L413.841 202.098L416.961 202.638L423.891 206.348L426.431 205.988L425.001 207.138L425.611 209.498L421.111 208.398L420.301 213.818L429.021 215.418L427.001 215.488L426.481 218.058L424.921 218.478L425.751 225.778L427.671 226.568L428.571 228.658L426.031 229.728L425.701 231.978L431.401 236.248L434.331 233.328L436.101 228.978L433.321 222.598L435.351 220.588L438.631 221.328L442.711 230.358L443.981 230.858L444.041 234.568L447.771 235.618L448.711 233.098L449.351 234.818L446.691 236.898L446.931 238.838L456.651 244.098L458.411 251.038L455.751 255.118L457.371 257.088L456.451 259.308L459.081 262.648L457.251 264.748L460.791 264.978L461.881 263.608L462.341 264.878L460.961 269.878L457.721 270.558L456.911 274.648L454.431 274.758L454.091 278.228L457.181 278.728L463.491 276.178L465.071 279.938L464.181 284.408L466.761 283.538L466.851 284.598L468.221 284.188L469.061 286.928L474.421 286.778L476.661 288.068L476.081 291.888L478.161 292.398L479.761 291.318L483.251 295.698L486.221 294.038L487.731 294.788L489.111 293.278L490.061 295.338L493.751 296.218L492.851 299.618L498.501 301.288L502.721 309.148Z"/>
</mask>
<path d="M502.721 309.148L498.341 311.158L497.621 313.078L493.571 314.368L490.801 314.528L485.061 310.338L479.991 314.648L477.051 314.728L473.141 310.498L471.751 310.878L469.301 308.438L461.771 306.178L458.091 310.318L454.141 312.358L452.151 318.438L448.121 321.188L444.161 328.538L445.041 330.588L441.421 334.208L441.891 337.078L438.771 341.348L436.741 340.498L437.531 337.788L435.251 327.518L433.221 326.768L432.101 328.348L429.061 327.628L426.051 329.148L422.191 327.758L421.241 325.528L419.241 324.778L415.361 326.118L413.711 318.888L407.391 318.738L402.571 314.388L400.651 316.438L396.111 315.408L394.311 316.298L393.021 320.938L388.001 325.968L386.241 326.158L384.581 323.548L383.681 325.628L378.731 324.278L362.991 323.758L353.091 319.178L349.201 315.548L349.811 313.088L348.451 312.468L347.601 313.608L346.331 310.938L344.031 311.518L343.971 310.408L345.091 310.958L344.431 309.658L343.341 310.548L342.391 308.058L341.491 309.098L339.431 308.128L340.291 307.048L339.151 305.688L333.681 306.058L331.261 309.238L327.401 307.978L325.841 308.708L319.101 303.118H315.551L312.171 301.488L313.031 299.348L314.821 298.798L313.871 298.678L314.561 296.808L316.271 295.918L316.291 294.948L318.651 294.548L319.741 296.868L321.931 297.378L323.081 293.848L327.131 293.298L329.221 296.178L331.831 291.538L335.041 290.948L337.211 287.388L342.351 287.618L343.241 283.518L346.171 284.838L347.651 283.518L347.451 281.858L350.061 281.128L350.791 283.558L353.271 285.178L355.611 284.568L356.591 282.268L361.411 284.578L361.641 283.418L366.961 282.458L365.331 280.778L366.211 279.668L372.591 279.088L373.841 275.428L376.021 275.088L377.781 272.928L378.021 271.098L376.471 270.418L377.101 268.968L374.891 270.018L375.191 267.368L374.021 266.238L374.621 264.868L378.341 263.388L378.381 261.278L375.101 259.648L376.471 254.098L379.651 253.408L376.961 250.868L377.071 248.738L379.001 247.868L379.801 244.108L385.921 241.108H386.721L388.601 239.338L387.241 235.748L388.391 231.688L387.071 231.408L386.641 227.698L388.871 223.158L385.641 219.908L388.531 220.798L391.491 216.548L390.681 214.358L388.701 214.418L387.361 212.658L389.051 211.048L389.001 208.458L390.351 209.658L391.331 206.598L393.611 205.968L393.951 207.648L397.821 205.828L399.381 207.228L402.551 207.268L403.911 201.618L408.411 202.998L410.041 201.468L412.521 203.198L413.841 202.098L416.961 202.638L423.891 206.348L426.431 205.988L425.001 207.138L425.611 209.498L421.111 208.398L420.301 213.818L429.021 215.418L427.001 215.488L426.481 218.058L424.921 218.478L425.751 225.778L427.671 226.568L428.571 228.658L426.031 229.728L425.701 231.978L431.401 236.248L434.331 233.328L436.101 228.978L433.321 222.598L435.351 220.588L438.631 221.328L442.711 230.358L443.981 230.858L444.041 234.568L447.771 235.618L448.711 233.098L449.351 234.818L446.691 236.898L446.931 238.838L456.651 244.098L458.411 251.038L455.751 255.118L457.371 257.088L456.451 259.308L459.081 262.648L457.251 264.748L460.791 264.978L461.881 263.608L462.341 264.878L460.961 269.878L457.721 270.558L456.911 274.648L454.431 274.758L454.091 278.228L457.181 278.728L463.491 276.178L465.071 279.938L464.181 284.408L466.761 283.538L466.851 284.598L468.221 284.188L469.061 286.928L474.421 286.778L476.661 288.068L476.081 291.888L478.161 292.398L479.761 291.318L483.251 295.698L486.221 294.038L487.731 294.788L489.111 293.278L490.061 295.338L493.751 296.218L492.851 299.618L498.501 301.288L502.721 309.148Z" stroke="white" stroke-width="2" mask="url(#path-2-inside-2_1_2)"/>
<mask id="path-3-inside-3_1_2" fill="white">
<path d="M72.6612 89.2482L77.7412 92.9782L80.1612 95.0182L84.3012 94.3982L86.7012 96.1382L88.2212 94.9082L89.7312 96.3782L91.3312 96.1182L91.3012 99.4282L92.8912 101.098L94.5512 99.3482L99.0312 100.728L101.371 99.1482L103.851 102.738L102.931 105.168H102.711L103.511 108.158L101.891 111.358L103.571 111.738L103.771 114.998L102.431 115.848L105.481 118.058L103.511 120.768L106.041 121.108L107.301 126.368L108.381 126.408L108.051 127.958L106.431 127.918L107.971 130.728L103.831 130.088L103.781 130.198L103.161 131.238L104.601 132.388L107.161 132.088L109.701 136.078L107.911 136.118L107.541 139.208L109.431 139.558L107.881 142.708L103.481 143.128L103.541 150.438L100.691 149.678L99.2512 147.618L98.7312 148.578L96.9212 146.508L92.1812 146.598L91.2412 145.118L84.1012 151.868L82.9112 151.408L82.4212 153.018L78.8012 153.698V154.788L79.3512 157.978L76.6112 160.618L75.5612 160.238L75.8812 161.108L73.0412 159.248L69.0812 160.698L65.2212 158.498L63.2612 158.388L61.9112 159.968L60.8412 159.298L60.8712 159.478L59.1812 159.298L58.0112 160.808L55.5912 160.368L56.4312 162.348L52.8512 162.788L53.5612 165.198L50.4512 161.708L48.1712 162.198L45.7912 164.898L41.8612 163.238L41.3012 160.878L34.6512 157.898L37.1512 153.928L36.3212 152.638L33.6512 150.688L31.0912 152.168L31.0012 149.668L28.3912 149.318L28.2512 147.788L25.2812 147.578L22.5712 144.458L21.6612 145.448L20.7112 142.598L15.6112 141.818L16.8712 139.278L14.4312 136.328L12.9312 136.768L10.0512 134.658L9.56117 130.028L11.5112 126.318L9.09117 122.678L9.82117 122.048L8.54117 121.978L7.77117 119.958L6.45117 120.338L5.58117 116.848L3.50117 117.238L0.291168 114.918L0.851168 113.078L4.67117 111.208L2.77117 108.168L3.33117 106.878L1.13117 105.238L8.67117 104.658L10.0512 106.948L10.1512 111.688L15.0412 111.938L16.0512 114.808L14.1712 113.658L13.6512 115.448L18.5412 118.988L16.8412 122.398L18.2012 125.198L22.4512 125.768L21.2312 124.538L22.6112 123.018L21.2312 120.938L22.2912 119.268L21.9012 116.048L24.5412 115.998L23.8912 113.128L25.5612 109.918L28.0912 108.818L28.1112 104.718L30.9912 104.618L31.9412 101.928L34.3912 100.048L36.2712 100.818L36.0412 97.7882L38.3212 94.1082L52.8212 91.2882L55.8712 94.0582L58.4712 89.0782L63.8812 86.6782L65.2412 89.2282L66.0612 85.1982L72.6612 89.2482Z"/>
</mask>
<path d="M72.6612 89.2482L77.7412 92.9782L80.1612 95.0182L84.3012 94.3982L86.7012 96.1382L88.2212 94.9082L89.7312 96.3782L91.3312 96.1182L91.3012 99.4282L92.8912 101.098L94.5512 99.3482L99.0312 100.728L101.371 99.1482L103.851 102.738L102.931 105.168H102.711L103.511 108.158L101.891 111.358L103.571 111.738L103.771 114.998L102.431 115.848L105.481 118.058L103.511 120.768L106.041 121.108L107.301 126.368L108.381 126.408L108.051 127.958L106.431 127.918L107.971 130.728L103.831 130.088L103.781 130.198L103.161 131.238L104.601 132.388L107.161 132.088L109.701 136.078L107.911 136.118L107.541 139.208L109.431 139.558L107.881 142.708L103.481 143.128L103.541 150.438L100.691 149.678L99.2512 147.618L98.7312 148.578L96.9212 146.508L92.1812 146.598L91.2412 145.118L84.1012 151.868L82.9112 151.408L82.4212 153.018L78.8012 153.698V154.788L79.3512 157.978L76.6112 160.618L75.5612 160.238L75.8812 161.108L73.0412 159.248L69.0812 160.698L65.2212 158.498L63.2612 158.388L61.9112 159.968L60.8412 159.298L60.8712 159.478L59.1812 159.298L58.0112 160.808L55.5912 160.368L56.4312 162.348L52.8512 162.788L53.5612 165.198L50.4512 161.708L48.1712 162.198L45.7912 164.898L41.8612 163.238L41.3012 160.878L34.6512 157.898L37.1512 153.928L36.3212 152.638L33.6512 150.688L31.0912 152.168L31.0012 149.668L28.3912 149.318L28.2512 147.788L25.2812 147.578L22.5712 144.458L21.6612 145.448L20.7112 142.598L15.6112 141.818L16.8712 139.278L14.4312 136.328L12.9312 136.768L10.0512 134.658L9.56117 130.028L11.5112 126.318L9.09117 122.678L9.82117 122.048L8.54117 121.978L7.77117 119.958L6.45117 120.338L5.58117 116.848L3.50117 117.238L0.291168 114.918L0.851168 113.078L4.67117 111.208L2.77117 108.168L3.33117 106.878L1.13117 105.238L8.67117 104.658L10.0512 106.948L10.1512 111.688L15.0412 111.938L16.0512 114.808L14.1712 113.658L13.6512 115.448L18.5412 118.988L16.8412 122.398L18.2012 125.198L22.4512 125.768L21.2312 124.538L22.6112 123.018L21.2312 120.938L22.2912 119.268L21.9012 116.048L24.5412 115.998L23.8912 113.128L25.5612 109.918L28.0912 108.818L28.1112 104.718L30.9912 104.618L31.9412 101.928L34.3912 100.048L36.2712 100.818L36.0412 97.7882L38.3212 94.1082L52.8212 91.2882L55.8712 94.0582L58.4712 89.0782L63.8812 86.6782L65.2412 89.2282L66.0612 85.1982L72.6612 89.2482Z" stroke="white" stroke-width="2" mask="url(#path-3-inside-3_1_2)"/>
<mask id="path-4-inside-4_1_2" fill="white">
<path d="M313.931 40.1582L317.891 40.2482L324.711 43.2782L327.051 45.8482L333.651 45.0582L336.951 43.2482L340.271 49.8882L341.101 54.7482L343.201 55.2382L349.841 52.3082L352.771 53.3482L353.791 58.9882L355.621 61.0482L352.431 63.4182L355.731 65.4782L357.521 63.3482L358.881 63.8482L359.731 59.7482L362.911 56.3482L368.991 58.8582L370.541 61.3982L373.371 60.4382L374.821 55.1682L378.681 55.6082L379.401 56.7182L384.601 56.4782L391.751 64.3182L393.811 68.3182L390.221 69.7682L390.781 72.6882L388.711 73.5482L389.881 75.5182L386.261 79.2982L384.831 80.1282L381.941 78.5782L380.321 82.4082L377.031 82.3782L376.721 84.1582L373.741 85.2782L374.561 87.5782L372.941 86.3582L371.381 89.0482L372.761 92.1482L375.171 91.6982L376.571 92.9782L376.041 94.1882L377.501 94.7482L378.971 98.3382L381.251 96.1082L386.341 96.5982L386.461 100.928L388.331 103.728L389.801 105.078L393.101 104.838L397.871 112.798L404.201 118.888L404.191 126.018L406.681 128.398L406.351 129.878L405.241 130.518L397.891 126.708L396.321 130.758L392.031 133.288L389.301 133.428L387.771 135.708L384.651 136.838L385.741 139.098L381.761 141.378L383.711 144.318L379.141 142.838L376.091 144.018L376.001 142.218L375.351 143.518L371.411 144.528L368.861 141.328L366.171 141.218L363.711 138.228L360.461 137.768L359.461 134.218L354.651 134.268L354.661 129.618L352.921 129.498L352.911 127.858L348.291 127.538L346.251 125.958L346.241 126.908L343.571 127.188L343.411 129.338L340.501 129.288L338.831 131.618L336.071 130.378L336.571 127.528L333.361 125.428L330.291 127.368L330.211 129.968L328.901 131.098L327.041 130.448L325.551 132.378L321.871 130.258L321.661 131.348L317.201 130.448L317.681 131.328L316.251 131.258L314.611 128.888L313.181 131.098L311.871 130.188L310.491 130.948L310.441 133.528L307.471 133.938V134.568L304.271 136.488L303.261 135.178L303.561 132.628L300.831 130.378L299.581 131.138L297.821 129.618L294.751 129.568L297.081 128.148L295.461 126.598L299.091 122.558L298.631 119.428L296.881 118.028L296.571 115.228L298.011 114.168L297.411 109.988L294.981 107.748L290.971 110.378L287.251 108.628L284.701 109.728L281.961 108.408L282.811 105.098L279.681 103.768L280.321 102.188L275.091 101.378L274.321 99.7282L275.241 98.8182L272.581 96.8582L273.861 95.1182L276.091 95.3682L275.611 93.1382L277.461 92.4582L277.271 88.2082L275.091 86.4582L276.341 83.1182L273.521 79.0882L276.321 76.2682L283.391 80.2782L285.101 79.8582L284.741 78.5082L287.301 75.7682L291.481 77.9082L293.681 77.6582L296.631 80.1682L297.611 78.3382L298.741 82.3482L303.241 81.0982L304.161 79.5582L302.741 76.4482L306.471 74.8382L306.411 72.9282L308.071 73.9782L307.891 76.0382L308.351 75.0282L311.711 77.5682L314.101 75.7982L316.931 78.1082L316.541 76.5782L320.421 76.2782L318.431 72.3982L316.701 71.5182L317.701 71.1182L316.211 70.0082L316.921 68.9582L314.881 67.9882L317.671 63.2482L314.341 59.9982L315.871 57.7882L313.661 49.3382L315.121 45.9882L311.921 42.7982L311.511 39.7482L313.931 40.1582Z"/>
</mask>
<path d="M313.931 40.1582L317.891 40.2482L324.711 43.2782L327.051 45.8482L333.651 45.0582L336.951 43.2482L340.271 49.8882L341.101 54.7482L343.201 55.2382L349.841 52.3082L352.771 53.3482L353.791 58.9882L355.621 61.0482L352.431 63.4182L355.731 65.4782L357.521 63.3482L358.881 63.8482L359.731 59.7482L362.911 56.3482L368.991 58.8582L370.541 61.3982L373.371 60.4382L374.821 55.1682L378.681 55.6082L379.401 56.7182L384.601 56.4782L391.751 64.3182L393.811 68.3182L390.221 69.7682L390.781 72.6882L388.711 73.5482L389.881 75.5182L386.261 79.2982L384.831 80.1282L381.941 78.5782L380.321 82.4082L377.031 82.3782L376.721 84.1582L373.741 85.2782L374.561 87.5782L372.941 86.3582L371.381 89.0482L372.761 92.1482L375.171 91.6982L376.571 92.9782L376.041 94.1882L377.501 94.7482L378.971 98.3382L381.251 96.1082L386.341 96.5982L386.461 100.928L388.331 103.728L389.801 105.078L393.101 104.838L397.871 112.798L404.201 118.888L404.191 126.018L406.681 128.398L406.351 129.878L405.241 130.518L397.891 126.708L396.321 130.758L392.031 133.288L389.301 133.428L387.771 135.708L384.651 136.838L385.741 139.098L381.761 141.378L383.711 144.318L379.141 142.838L376.091 144.018L376.001 142.218L375.351 143.518L371.411 144.528L368.861 141.328L366.171 141.218L363.711 138.228L360.461 137.768L359.461 134.218L354.651 134.268L354.661 129.618L352.921 129.498L352.911 127.858L348.291 127.538L346.251 125.958L346.241 126.908L343.571 127.188L343.411 129.338L340.501 129.288L338.831 131.618L336.071 130.378L336.571 127.528L333.361 125.428L330.291 127.368L330.211 129.968L328.901 131.098L327.041 130.448L325.551 132.378L321.871 130.258L321.661 131.348L317.201 130.448L317.681 131.328L316.251 131.258L314.611 128.888L313.181 131.098L311.871 130.188L310.491 130.948L310.441 133.528L307.471 133.938V134.568L304.271 136.488L303.261 135.178L303.561 132.628L300.831 130.378L299.581 131.138L297.821 129.618L294.751 129.568L297.081 128.148L295.461 126.598L299.091 122.558L298.631 119.428L296.881 118.028L296.571 115.228L298.011 114.168L297.411 109.988L294.981 107.748L290.971 110.378L287.251 108.628L284.701 109.728L281.961 108.408L282.811 105.098L279.681 103.768L280.321 102.188L275.091 101.378L274.321 99.7282L275.241 98.8182L272.581 96.8582L273.861 95.1182L276.091 95.3682L275.611 93.1382L277.461 92.4582L277.271 88.2082L275.091 86.4582L276.341 83.1182L273.521 79.0882L276.321 76.2682L283.391 80.2782L285.101 79.8582L284.741 78.5082L287.301 75.7682L291.481 77.9082L293.681 77.6582L296.631 80.1682L297.611 78.3382L298.741 82.3482L303.241 81.0982L304.161 79.5582L302.741 76.4482L306.471 74.8382L306.411 72.9282L308.071 73.9782L307.891 76.0382L308.351 75.0282L311.711 77.5682L314.101 75.7982L316.931 78.1082L316.541 76.5782L320.421 76.2782L318.431 72.3982L316.701 71.5182L317.701 71.1182L316.211 70.0082L316.921 68.9582L314.881 67.9882L317.671 63.2482L314.341 59.9982L315.871 57.7882L313.661 49.3382L315.121 45.9882L311.921 42.7982L311.511 39.7482L313.931 40.1582Z" stroke="white" stroke-width="2" mask="url(#path-4-inside-4_1_2)"/>
<mask id="path-5-inside-5_1_2" fill="white">
<path d="M265.091 4.8382L266.841 6.5182L268.291 6.4882L268.791 5.0282L272.741 6.7182L272.731 9.7982L276.081 9.4882L276.121 6.7382L278.541 5.4482L278.731 10.2482L280.381 11.1582L285.011 8.5382L284.841 10.4282L288.021 11.2482L288.071 13.7982L289.641 14.9382L287.481 18.0582L288.311 24.0582L291.201 28.1782L295.271 29.7082L296.481 31.8782L296.961 40.0182L298.941 40.3582L302.781 35.7382L311.511 39.7482L311.921 42.7982L315.121 45.9882L313.661 49.3382L315.871 57.7882L314.341 59.9982L317.671 63.2482L314.881 67.9882L316.921 68.9582L316.211 70.0082L317.701 71.1182L316.701 71.5182L318.431 72.3982L320.421 76.2782L316.541 76.5782L316.931 78.1082L314.101 75.7982L311.711 77.5682L308.351 75.0282L307.891 76.0382L308.071 73.9782L306.411 72.9282L306.471 74.8382L302.741 76.4482L304.161 79.5582L303.241 81.0982L298.741 82.3482L297.611 78.3382L296.631 80.1682L293.681 77.6582L291.481 77.9082L287.301 75.7682L284.741 78.5082L285.101 79.8582L283.391 80.2782L276.321 76.2682L272.331 74.9082L271.781 71.7882L269.081 69.4382L266.771 70.2982L263.701 64.6782L260.991 64.9782L260.301 66.4882L256.371 62.6382L254.881 62.9082L255.561 64.2882L253.831 65.0282L254.411 67.0582L249.101 69.4582L249.401 71.4282L247.561 74.5482L245.921 75.7982L245.001 75.0182L243.881 78.0082L238.401 76.7682L237.741 79.5582L235.361 80.5382L235.221 82.1682L232.011 81.5382L231.211 82.4482L229.961 81.3682L228.091 83.3582L226.131 83.1582L225.011 77.9282L222.271 80.0382L218.971 78.1282L218.091 80.5582L216.541 78.7182L215.421 75.7182L212.681 75.2982L209.521 66.9982L207.171 65.2982L205.351 61.3182L205.551 57.2882L203.801 57.1382L204.371 54.5882L207.031 52.3982L206.981 48.2582L208.361 47.7282L209.151 47.4382L210.161 45.5082L210.381 46.4882L211.701 46.0282L210.541 45.0782L211.491 41.7382L214.181 39.6882L213.321 38.9082L214.201 36.0382L212.951 35.2682L215.821 34.5682L220.191 37.4082L222.741 37.2082L224.221 31.4782L227.361 31.0282L228.851 28.5582L235.131 31.3882L236.791 30.9582L237.771 33.5782L240.081 32.7082L242.361 34.1282L245.031 33.7282L248.061 26.4082L249.771 26.9282L251.631 25.7382L253.921 27.2282L254.241 26.0382L259.551 27.9982L263.421 27.3382L262.721 23.7582L263.831 21.8282L262.301 19.3182L264.521 17.0282L265.231 13.0082L263.891 10.3782L262.191 11.4382L260.401 9.6682L261.911 6.7382L265.091 4.8382Z"/>
</mask>
<path d="M265.091 4.8382L266.841 6.5182L268.291 6.4882L268.791 5.0282L272.741 6.7182L272.731 9.7982L276.081 9.4882L276.121 6.7382L278.541 5.4482L278.731 10.2482L280.381 11.1582L285.011 8.5382L284.841 10.4282L288.021 11.2482L288.071 13.7982L289.641 14.9382L287.481 18.0582L288.311 24.0582L291.201 28.1782L295.271 29.7082L296.481 31.8782L296.961 40.0182L298.941 40.3582L302.781 35.7382L311.511 39.7482L311.921 42.7982L315.121 45.9882L313.661 49.3382L315.871 57.7882L314.341 59.9982L317.671 63.2482L314.881 67.9882L316.921 68.9582L316.211 70.0082L317.701 71.1182L316.701 71.5182L318.431 72.3982L320.421 76.2782L316.541 76.5782L316.931 78.1082L314.101 75.7982L311.711 77.5682L308.351 75.0282L307.891 76.0382L308.071 73.9782L306.411 72.9282L306.471 74.8382L302.741 76.4482L304.161 79.5582L303.241 81.0982L298.741 82.3482L297.611 78.3382L296.631 80.1682L293.681 77.6582L291.481 77.9082L287.301 75.7682L284.741 78.5082L285.101 79.8582L283.391 80.2782L276.321 76.2682L272.331 74.9082L271.781 71.7882L269.081 69.4382L266.771 70.2982L263.701 64.6782L260.991 64.9782L260.301 66.4882L256.371 62.6382L254.881 62.9082L255.561 64.2882L253.831 65.0282L254.411 67.0582L249.101 69.4582L249.401 71.4282L247.561 74.5482L245.921 75.7982L245.001 75.0182L243.881 78.0082L238.401 76.7682L237.741 79.5582L235.361 80.5382L235.221 82.1682L232.011 81.5382L231.211 82.4482L229.961 81.3682L228.091 83.3582L226.131 83.1582L225.011 77.9282L222.271 80.0382L218.971 78.1282L218.091 80.5582L216.541 78.7182L215.421 75.7182L212.681 75.2982L209.521 66.9982L207.171 65.2982L205.351 61.3182L205.551 57.2882L203.801 57.1382L204.371 54.5882L207.031 52.3982L206.981 48.2582L208.361 47.7282L209.151 47.4382L210.161 45.5082L210.381 46.4882L211.701 46.0282L210.541 45.0782L211.491 41.7382L214.181 39.6882L213.321 38.9082L214.201 36.0382L212.951 35.2682L215.821 34.5682L220.191 37.4082L222.741 37.2082L224.221 31.4782L227.361 31.0282L228.851 28.5582L235.131 31.3882L236.791 30.9582L237.771 33.5782L240.081 32.7082L242.361 34.1282L245.031 33.7282L248.061 26.4082L249.771 26.9282L251.631 25.7382L253.921 27.2282L254.241 26.0382L259.551 27.9982L263.421 27.3382L262.721 23.7582L263.831 21.8282L262.301 19.3182L264.521 17.0282L265.231 13.0082L263.891 10.3782L262.191 11.4382L260.401 9.6682L261.911 6.7382L265.091 4.8382Z" stroke="white" stroke-width="2" mask="url(#path-5-inside-5_1_2)"/>
<mask id="path-6-inside-6_1_2" fill="white">
<path d="M510.791 107.638L512.091 107.918L509.611 113.828L513.201 116.788L512.621 120.958L509.061 121.058L507.921 124.018L498.521 126.088L497.651 127.548L502.251 132.068L502.831 134.388L505.231 135.448L505.821 133.618H507.101L510.081 136.288L513.751 143.228L514.351 147.268L518.931 148.508L518.811 150.818L522.681 153.858L527.251 153.108L530.281 149.348L532.921 149.308L534.901 147.448L535.201 148.558L538.571 149.328L538.511 144.938L536.731 144.578L535.401 145.798L534.881 144.628L534.941 142.578L537.531 140.798L542.561 143.898L542.231 145.428L543.771 146.778L542.961 147.998L544.971 150.788L546.531 150.328L548.421 152.498L550.031 151.438L549.671 150.248L553.171 150.298L553.911 153.958L559.571 154.998L559.981 159.128L563.341 161.928L564.361 159.758L565.291 160.478L566.351 159.218L564.661 157.228L567.871 158.938L573.371 158.708L573.631 160.088L578.711 163.468L582.681 163.868L583.941 162.838L583.301 160.418L586.271 161.048L586.871 163.348L585.641 166.808L589.201 169.428L587.241 170.718L586.081 174.128L591.361 185.388L591.041 188.818L594.941 191.508L598.601 191.328L599.431 194.308L601.571 195.298L605.231 194.018L607.761 195.638L607.401 198.728L609.171 206.218L610.341 206.548L610.291 211.288L612.161 212.838L610.571 216.908L605.431 218.768L602.911 221.198L596.011 218.678L590.601 220.308L588.991 220.058L588.471 218.378L585.711 218.698L582.951 220.958L583.901 224.388L578.991 228.668L577.571 232.418L574.151 234.768L571.161 234.218L567.581 232.938L567.691 229.238L562.331 224.748L561.491 221.108L558.841 220.848L557.311 222.178L552.731 221.238L549.381 217.458L546.781 218.538L545.971 216.968L534.271 219.308L532.061 214.568L526.831 214.468L525.851 210.858L523.811 210.718L522.141 213.538L521.291 212.678L520.231 210.958L522.111 208.548L517.691 202.818L514.401 201.428L513.991 198.618L511.431 195.248L509.281 196.788L506.621 195.198L505.701 191.268L507.021 187.058H506.801L506.151 187.928L502.991 185.348L502.271 185.388L501.321 184.718L497.891 187.288L492.411 183.478L491.061 186.368L488.771 185.818L487.721 183.798L482.831 184.188L477.661 177.168L476.381 176.308L474.661 177.178H474.201L473.331 178.318L473.161 177.168L466.731 174.408L463.571 175.498L464.351 169.758L460.861 171.758L457.391 167.088L457.601 165.548L458.051 165.588L459.921 162.548L458.701 161.108L460.621 159.508H461.021L462.151 155.898L458.071 152.408L459.581 151.538L459.551 148.098L465.351 141.228L464.181 135.468L466.791 132.838L465.991 129.858L469.851 125.708L471.561 125.718L472.201 123.628L474.901 124.058L478.371 118.718L481.921 120.568L483.121 114.228L485.301 113.858L485.481 112.008L488.871 111.288L493.481 112.038L497.601 110.758L499.701 112.518L506.301 107.668L506.281 103.828L508.981 104.838L510.791 107.638Z"/>
</mask>
<path d="M510.791 107.638L512.091 107.918L509.611 113.828L513.201 116.788L512.621 120.958L509.061 121.058L507.921 124.018L498.521 126.088L497.651 127.548L502.251 132.068L502.831 134.388L505.231 135.448L505.821 133.618H507.101L510.081 136.288L513.751 143.228L514.351 147.268L518.931 148.508L518.811 150.818L522.681 153.858L527.251 153.108L530.281 149.348L532.921 149.308L534.901 147.448L535.201 148.558L538.571 149.328L538.511 144.938L536.731 144.578L535.401 145.798L534.881 144.628L534.941 142.578L537.531 140.798L542.561 143.898L542.231 145.428L543.771 146.778L542.961 147.998L544.971 150.788L546.531 150.328L548.421 152.498L550.031 151.438L549.671 150.248L553.171 150.298L553.911 153.958L559.571 154.998L559.981 159.128L563.341 161.928L564.361 159.758L565.291 160.478L566.351 159.218L564.661 157.228L567.871 158.938L573.371 158.708L573.631 160.088L578.711 163.468L582.681 163.868L583.941 162.838L583.301 160.418L586.271 161.048L586.871 163.348L585.641 166.808L589.201 169.428L587.241 170.718L586.081 174.128L591.361 185.388L591.041 188.818L594.941 191.508L598.601 191.328L599.431 194.308L601.571 195.298L605.231 194.018L607.761 195.638L607.401 198.728L609.171 206.218L610.341 206.548L610.291 211.288L612.161 212.838L610.571 216.908L605.431 218.768L602.911 221.198L596.011 218.678L590.601 220.308L588.991 220.058L588.471 218.378L585.711 218.698L582.951 220.958L583.901 224.388L578.991 228.668L577.571 232.418L574.151 234.768L571.161 234.218L567.581 232.938L567.691 229.238L562.331 224.748L561.491 221.108L558.841 220.848L557.311 222.178L552.731 221.238L549.381 217.458L546.781 218.538L545.971 216.968L534.271 219.308L532.061 214.568L526.831 214.468L525.851 210.858L523.811 210.718L522.141 213.538L521.291 212.678L520.231 210.958L522.111 208.548L517.691 202.818L514.401 201.428L513.991 198.618L511.431 195.248L509.281 196.788L506.621 195.198L505.701 191.268L507.021 187.058H506.801L506.151 187.928L502.991 185.348L502.271 185.388L501.321 184.718L497.891 187.288L492.411 183.478L491.061 186.368L488.771 185.818L487.721 183.798L482.831 184.188L477.661 177.168L476.381 176.308L474.661 177.178H474.201L473.331 178.318L473.161 177.168L466.731 174.408L463.571 175.498L464.351 169.758L460.861 171.758L457.391 167.088L457.601 165.548L458.051 165.588L459.921 162.548L458.701 161.108L460.621 159.508H461.021L462.151 155.898L458.071 152.408L459.581 151.538L459.551 148.098L465.351 141.228L464.181 135.468L466.791 132.838L465.991 129.858L469.851 125.708L471.561 125.718L472.201 123.628L474.901 124.058L478.371 118.718L481.921 120.568L483.121 114.228L485.301 113.858L485.481 112.008L488.871 111.288L493.481 112.038L497.601 110.758L499.701 112.518L506.301 107.668L506.281 103.828L508.981 104.838L510.791 107.638Z" stroke="white" stroke-width="2" mask="url(#path-6-inside-6_1_2)"/>
<mask id="path-7-inside-7_1_2" fill="white">
<path d="M436.581 87.3482L441.771 91.0282L443.881 89.7082L448.811 92.6582L454.011 92.9082L454.091 94.5482L457.031 96.3082L462.491 95.6282L462.231 98.6382L466.551 103.158L470.521 105.218L475.741 103.778L474.741 105.868L476.101 106.548L474.881 110.038L475.791 112.688L477.041 112.628L477.221 110.318L479.471 110.188L482.281 110.978L483.121 114.228L481.921 120.568L478.371 118.718L474.901 124.058L472.201 123.628L471.561 125.718L469.851 125.708L465.991 129.858L466.791 132.838L464.181 135.468L465.351 141.228L459.551 148.098L459.581 151.538L458.071 152.408L462.151 155.898L461.021 159.508H460.621L458.701 161.108L459.921 162.548L458.051 165.588L457.601 165.548L457.391 167.088L460.861 171.758L464.351 169.758L463.571 175.498L466.731 174.408L473.161 177.168L473.331 178.318L474.201 177.178H474.661L476.381 176.308L477.661 177.168L482.831 184.188L487.721 183.798L488.771 185.818L491.061 186.368L492.411 183.478L497.891 187.288L501.321 184.718L502.271 185.388L502.991 185.348L506.151 187.928L506.801 187.058H507.021L505.701 191.268L506.621 195.198L509.281 196.788L511.431 195.248L513.991 198.618L514.401 201.428L517.691 202.818L522.111 208.548L520.231 210.958L521.291 212.678L522.141 213.538L523.811 210.718L525.851 210.858L526.831 214.468L525.481 218.248L520.241 216.638L519.931 219.248L515.251 221.498L516.371 223.898L514.361 225.538L514.291 227.538L513.891 228.478L509.191 228.438L506.681 224.958L504.241 225.858L504.111 228.238L502.701 226.558L500.411 226.868L502.891 231.528L500.971 233.758L497.451 234.038L496.591 232.648L491.831 234.178L489.631 233.448L490.691 235.958L486.901 239.908L484.591 236.608L482.891 237.108L479.431 235.368L477.911 236.418L478.931 232.978L477.471 231.708L474.221 235.968L476.241 241.498L473.171 243.188L470.651 247.268L468.681 248.298L464.821 247.748L463.291 249.048L461.621 247.988L460.131 251.948L458.421 251.008L456.651 244.068L446.931 238.808L446.691 236.878L449.351 234.798L448.711 233.078L447.771 235.598L444.041 234.548L443.981 230.838L442.711 230.338L438.631 221.308L435.351 220.568L433.321 222.578L436.091 228.958L434.321 233.318L431.391 236.238L425.701 231.968L426.031 229.728L428.571 228.658L427.671 226.558L425.751 225.768L424.921 218.468L426.471 218.058L426.991 215.488L429.011 215.418L420.291 213.818L421.101 208.398L425.601 209.498L425.001 207.138L426.431 205.978L426.721 202.818L427.811 202.678L426.111 200.598L426.331 198.158L430.211 194.628L430.321 189.728L428.921 187.858L425.061 188.218L427.091 185.288L425.311 183.838L426.411 182.528L422.431 178.448L422.471 175.458L420.241 173.918L420.431 169.518L423.101 167.458L418.081 150.158L421.251 149.848L421.401 150.748L421.831 150.088L423.111 147.618L427.121 145.568L427.371 141.738L425.931 140.288L428.131 138.018L426.511 134.808L428.491 133.658L432.061 125.048L431.951 122.078L433.621 121.848L435.081 118.598L440.221 118.648L441.981 115.578L444.081 119.578L446.711 117.668L444.361 113.938L445.991 110.928L444.461 107.478L439.401 105.618L435.991 95.1782L431.411 92.5882L433.431 87.5982L436.581 87.3482Z"/>
</mask>
<path d="M436.581 87.3482L441.771 91.0282L443.881 89.7082L448.811 92.6582L454.011 92.9082L454.091 94.5482L457.031 96.3082L462.491 95.6282L462.231 98.6382L466.551 103.158L470.521 105.218L475.741 103.778L474.741 105.868L476.101 106.548L474.881 110.038L475.791 112.688L477.041 112.628L477.221 110.318L479.471 110.188L482.281 110.978L483.121 114.228L481.921 120.568L478.371 118.718L474.901 124.058L472.201 123.628L471.561 125.718L469.851 125.708L465.991 129.858L466.791 132.838L464.181 135.468L465.351 141.228L459.551 148.098L459.581 151.538L458.071 152.408L462.151 155.898L461.021 159.508H460.621L458.701 161.108L459.921 162.548L458.051 165.588L457.601 165.548L457.391 167.088L460.861 171.758L464.351 169.758L463.571 175.498L466.731 174.408L473.161 177.168L473.331 178.318L474.201 177.178H474.661L476.381 176.308L477.661 177.168L482.831 184.188L487.721 183.798L488.771 185.818L491.061 186.368L492.411 183.478L497.891 187.288L501.321 184.718L502.271 185.388L502.991 185.348L506.151 187.928L506.801 187.058H507.021L505.701 191.268L506.621 195.198L509.281 196.788L511.431 195.248L513.991 198.618L514.401 201.428L517.691 202.818L522.111 208.548L520.231 210.958L521.291 212.678L522.141 213.538L523.811 210.718L525.851 210.858L526.831 214.468L525.481 218.248L520.241 216.638L519.931 219.248L515.251 221.498L516.371 223.898L514.361 225.538L514.291 227.538L513.891 228.478L509.191 228.438L506.681 224.958L504.241 225.858L504.111 228.238L502.701 226.558L500.411 226.868L502.891 231.528L500.971 233.758L497.451 234.038L496.591 232.648L491.831 234.178L489.631 233.448L490.691 235.958L486.901 239.908L484.591 236.608L482.891 237.108L479.431 235.368L477.911 236.418L478.931 232.978L477.471 231.708L474.221 235.968L476.241 241.498L473.171 243.188L470.651 247.268L468.681 248.298L464.821 247.748L463.291 249.048L461.621 247.988L460.131 251.948L458.421 251.008L456.651 244.068L446.931 238.808L446.691 236.878L449.351 234.798L448.711 233.078L447.771 235.598L444.041 234.548L443.981 230.838L442.711 230.338L438.631 221.308L435.351 220.568L433.321 222.578L436.091 228.958L434.321 233.318L431.391 236.238L425.701 231.968L426.031 229.728L428.571 228.658L427.671 226.558L425.751 225.768L424.921 218.468L426.471 218.058L426.991 215.488L429.011 215.418L420.291 213.818L421.101 208.398L425.601 209.498L425.001 207.138L426.431 205.978L426.721 202.818L427.811 202.678L426.111 200.598L426.331 198.158L430.211 194.628L430.321 189.728L428.921 187.858L425.061 188.218L427.091 185.288L425.311 183.838L426.411 182.528L422.431 178.448L422.471 175.458L420.241 173.918L420.431 169.518L423.101 167.458L418.081 150.158L421.251 149.848L421.401 150.748L421.831 150.088L423.111 147.618L427.121 145.568L427.371 141.738L425.931 140.288L428.131 138.018L426.511 134.808L428.491 133.658L432.061 125.048L431.951 122.078L433.621 121.848L435.081 118.598L440.221 118.648L441.981 115.578L444.081 119.578L446.711 117.668L444.361 113.938L445.991 110.928L444.461 107.478L439.401 105.618L435.991 95.1782L431.411 92.5882L433.431 87.5982L436.581 87.3482Z" stroke="white" stroke-width="2" mask="url(#path-7-inside-7_1_2)"/>
<mask id="path-8-inside-8_1_2" fill="white">
<path d="M431.811 122.058L431.951 122.078L432.061 125.048L428.491 133.658L426.511 134.808L428.131 138.018L425.931 140.288L427.371 141.738L427.121 145.568L423.111 147.618L421.831 150.088L421.401 150.748L421.251 149.848L418.081 150.158L423.101 167.458L420.431 169.518L420.241 173.918L422.471 175.458L422.431 178.448L426.411 182.528L425.311 183.838L427.091 185.288L425.061 188.218L428.921 187.858L430.321 189.728L430.211 194.628L426.331 198.158L426.111 200.598L427.811 202.678L426.721 202.818L426.431 205.978L423.891 206.338L416.961 202.628L413.841 202.078L412.521 203.178L410.041 201.458L408.421 202.988L403.911 201.608L402.561 207.258L399.381 207.218L397.831 205.808L393.961 207.638L393.621 205.948L391.341 206.578L390.361 209.638L389.011 208.438L385.181 204.118L381.031 202.528L379.611 203.138L378.051 201.828L378.341 200.288L371.261 194.828L367.141 194.978L366.451 193.388L363.081 194.268L360.851 190.578L358.971 189.758H358.391L355.311 189.488L353.811 186.558L350.981 189.778V190.478L351.141 191.508L349.511 191.928L350.211 193.308L346.431 194.088L339.961 189.478L341.391 185.808L340.121 186.828L336.261 183.868L333.371 184.178L334.011 180.808L329.981 181.008L327.341 177.628L325.571 178.028L325.411 176.538L323.481 175.908L321.791 177.178L321.001 175.798L316.881 176.958L315.221 173.978L308.211 169.448L308.201 164.298L310.341 163.678L311.831 160.138L309.961 158.138L311.311 155.308L305.241 152.128L306.211 149.768L304.801 150.368L304.771 148.578L301.911 148.838L302.181 147.718L299.431 147.438L296.631 144.618L297.581 143.308L299.671 143.408L297.711 141.568L300.691 141.188L299.771 137.748L301.971 137.598L299.421 136.508L300.101 135.278L302.961 136.088L303.261 135.178L304.271 136.488L307.471 134.568V133.938L310.441 133.528L310.491 130.948L311.871 130.188L313.181 131.098L314.611 128.888L316.251 131.258L317.681 131.328L317.201 130.448L321.661 131.348L321.871 130.258L325.551 132.378L327.041 130.448L328.901 131.098L330.211 129.968L330.291 127.368L333.361 125.428L336.571 127.528L336.071 130.378L338.831 131.618L340.501 129.288L343.411 129.338L343.571 127.188L346.241 126.908L346.251 125.958L348.291 127.538L352.911 127.858L352.921 129.498L354.661 129.618L354.651 134.268L359.461 134.218L360.461 137.768L363.711 138.228L366.171 141.218L368.861 141.328L371.411 144.528L375.351 143.518L376.001 142.218L376.091 144.018L379.141 142.838L383.711 144.318L381.761 141.378L385.741 139.098L384.651 136.838L387.771 135.708L389.301 133.428L392.031 133.288L396.321 130.758L397.891 126.708L405.241 130.518L406.351 129.878L411.031 134.268L417.571 136.368L421.261 130.988L424.631 129.568L427.291 123.008L428.221 123.418L430.421 120.798L431.811 122.058Z"/>
</mask>
<path d="M431.811 122.058L431.951 122.078L432.061 125.048L428.491 133.658L426.511 134.808L428.131 138.018L425.931 140.288L427.371 141.738L427.121 145.568L423.111 147.618L421.831 150.088L421.401 150.748L421.251 149.848L418.081 150.158L423.101 167.458L420.431 169.518L420.241 173.918L422.471 175.458L422.431 178.448L426.411 182.528L425.311 183.838L427.091 185.288L425.061 188.218L428.921 187.858L430.321 189.728L430.211 194.628L426.331 198.158L426.111 200.598L427.811 202.678L426.721 202.818L426.431 205.978L423.891 206.338L416.961 202.628L413.841 202.078L412.521 203.178L410.041 201.458L408.421 202.988L403.911 201.608L402.561 207.258L399.381 207.218L397.831 205.808L393.961 207.638L393.621 205.948L391.341 206.578L390.361 209.638L389.011 208.438L385.181 204.118L381.031 202.528L379.611 203.138L378.051 201.828L378.341 200.288L371.261 194.828L367.141 194.978L366.451 193.388L363.081 194.268L360.851 190.578L358.971 189.758H358.391L355.311 189.488L353.811 186.558L350.981 189.778V190.478L351.141 191.508L349.511 191.928L350.211 193.308L346.431 194.088L339.961 189.478L341.391 185.808L340.121 186.828L336.261 183.868L333.371 184.178L334.011 180.808L329.981 181.008L327.341 177.628L325.571 178.028L325.411 176.538L323.481 175.908L321.791 177.178L321.001 175.798L316.881 176.958L315.221 173.978L308.211 169.448L308.201 164.298L310.341 163.678L311.831 160.138L309.961 158.138L311.311 155.308L305.241 152.128L306.211 149.768L304.801 150.368L304.771 148.578L301.911 148.838L302.181 147.718L299.431 147.438L296.631 144.618L297.581 143.308L299.671 143.408L297.711 141.568L300.691 141.188L299.771 137.748L301.971 137.598L299.421 136.508L300.101 135.278L302.961 136.088L303.261 135.178L304.271 136.488L307.471 134.568V133.938L310.441 133.528L310.491 130.948L311.871 130.188L313.181 131.098L314.611 128.888L316.251 131.258L317.681 131.328L317.201 130.448L321.661 131.348L321.871 130.258L325.551 132.378L327.041 130.448L328.901 131.098L330.211 129.968L330.291 127.368L333.361 125.428L336.571 127.528L336.071 130.378L338.831 131.618L340.501 129.288L343.411 129.338L343.571 127.188L346.241 126.908L346.251 125.958L348.291 127.538L352.911 127.858L352.921 129.498L354.661 129.618L354.651 134.268L359.461 134.218L360.461 137.768L363.711 138.228L366.171 141.218L368.861 141.328L371.411 144.528L375.351 143.518L376.001 142.218L376.091 144.018L379.141 142.838L383.711 144.318L381.761 141.378L385.741 139.098L384.651 136.838L387.771 135.708L389.301 133.428L392.031 133.288L396.321 130.758L397.891 126.708L405.241 130.518L406.351 129.878L411.031 134.268L417.571 136.368L421.261 130.988L424.631 129.568L427.291 123.008L428.221 123.418L430.421 120.798L431.811 122.058Z" stroke="white" stroke-width="2" mask="url(#path-8-inside-8_1_2)"/>
<mask id="path-9-inside-9_1_2" fill="white">
<path d="M571.161 234.218L567.581 232.938L567.691 229.238L562.331 224.748L561.491 221.108L558.841 220.848L557.311 222.178L552.731 221.238L549.381 217.458L546.781 218.538L545.971 216.968L534.271 219.308L532.061 214.568L526.831 214.468L525.481 218.248L520.241 216.638L519.931 219.248L515.251 221.498L516.371 223.898L514.361 225.538L513.891 228.478L509.191 228.438L506.681 224.958L504.241 225.858L504.111 228.238L502.701 226.558L500.541 226.808L502.891 231.528L500.971 233.758L497.451 234.038L496.591 232.648L491.831 234.178L489.631 233.448L490.691 235.958L486.901 239.908L484.591 236.608L482.891 237.108L479.431 235.368L477.911 236.418L478.931 232.978L477.471 231.708L474.221 235.968L476.241 241.498L473.171 243.188L470.651 247.268L468.681 248.298L464.821 247.748L463.291 249.048L461.621 247.988L460.131 251.948L458.421 251.008L455.761 255.088L457.381 257.058L456.451 259.288L459.091 262.618L457.261 264.718L460.801 264.958L461.901 263.588L462.361 264.858L460.981 269.858L457.741 270.538L456.921 274.628L454.451 274.738L454.101 278.208L457.201 278.698L463.511 276.158L465.091 279.918L464.191 284.388L466.771 283.518L466.861 284.578L468.231 284.168L469.071 286.898L474.431 286.748L476.671 288.038L476.091 291.858L478.171 292.368L479.771 291.278L483.261 295.668L486.241 293.998L487.751 294.758L489.121 293.248L490.071 295.308L493.761 296.188L492.861 299.588L498.511 301.258L502.721 309.148L507.721 308.338L514.861 299.548L523.941 299.068L526.561 287.768L528.231 286.138L536.731 285.988L540.861 283.968L543.461 280.928L545.051 276.158L544.551 270.518L546.811 266.778L546.361 263.158L548.541 259.118L547.811 254.958L551.311 251.578L551.281 249.438L558.551 248.068L567.631 244.238L571.071 240.518L571.741 236.138L571.161 234.218Z"/>
</mask>
<path d="M571.161 234.218L567.581 232.938L567.691 229.238L562.331 224.748L561.491 221.108L558.841 220.848L557.311 222.178L552.731 221.238L549.381 217.458L546.781 218.538L545.971 216.968L534.271 219.308L532.061 214.568L526.831 214.468L525.481 218.248L520.241 216.638L519.931 219.248L515.251 221.498L516.371 223.898L514.361 225.538L513.891 228.478L509.191 228.438L506.681 224.958L504.241 225.858L504.111 228.238L502.701 226.558L500.541 226.808L502.891 231.528L500.971 233.758L497.451 234.038L496.591 232.648L491.831 234.178L489.631 233.448L490.691 235.958L486.901 239.908L484.591 236.608L482.891 237.108L479.431 235.368L477.911 236.418L478.931 232.978L477.471 231.708L474.221 235.968L476.241 241.498L473.171 243.188L470.651 247.268L468.681 248.298L464.821 247.748L463.291 249.048L461.621 247.988L460.131 251.948L458.421 251.008L455.761 255.088L457.381 257.058L456.451 259.288L459.091 262.618L457.261 264.718L460.801 264.958L461.901 263.588L462.361 264.858L460.981 269.858L457.741 270.538L456.921 274.628L454.451 274.738L454.101 278.208L457.201 278.698L463.511 276.158L465.091 279.918L464.191 284.388L466.771 283.518L466.861 284.578L468.231 284.168L469.071 286.898L474.431 286.748L476.671 288.038L476.091 291.858L478.171 292.368L479.771 291.278L483.261 295.668L486.241 293.998L487.751 294.758L489.121 293.248L490.071 295.308L493.761 296.188L492.861 299.588L498.511 301.258L502.721 309.148L507.721 308.338L514.861 299.548L523.941 299.068L526.561 287.768L528.231 286.138L536.731 285.988L540.861 283.968L543.461 280.928L545.051 276.158L544.551 270.518L546.811 266.778L546.361 263.158L548.541 259.118L547.811 254.958L551.311 251.578L551.281 249.438L558.551 248.068L567.631 244.238L571.071 240.518L571.741 236.138L571.161 234.218Z" stroke="white" stroke-width="2" mask="url(#path-9-inside-9_1_2)"/>
<mask id="path-10-inside-10_1_2" fill="white">
<path d="M109.701 136.078L111.751 135.518L112.661 137.768L114.581 135.668L116.071 139.028L119.461 137.428L121.341 141.258L119.831 141.388L118.511 145.488L121.721 146.118L122.801 144.198L125.401 144.058L126.461 145.548L128.951 144.168L130.871 145.598L127.821 146.228L129.641 148.228L132.401 148.698L133.901 150.778L138.951 150.638H139.461L140.771 149.758L142.771 150.468L145.761 155.038L150.001 154.918L149.641 158.428L153.211 158.248L155.731 160.298L157.601 160.208L156.361 162.758L157.831 168.508L155.461 168.538L154.571 173.688L155.641 176.438L153.851 177.918L154.681 180.748L153.191 183.458L154.881 182.888L156.461 184.448L153.041 186.028L151.251 189.418L149.031 187.538L145.351 189.568L143.201 192.468L143.971 195.318L145.741 193.948L148.211 194.898L144.751 195.778L144.551 197.238L147.271 199.578L145.591 200.508L147.131 200.898L146.421 201.878L150.571 203.028L149.071 213.498L149.721 212.628L151.501 213.448L151.661 217.878L150.471 220.098V220.598L150.141 221.648L152.011 221.948L151.591 226.388L153.611 228.888L151.471 230.558L151.031 233.768L153.891 238.538L151.971 241.718L152.251 244.038L147.741 245.988L147.511 247.648L148.891 248.538L148.151 250.518L145.711 250.318L146.351 253.278L148.321 253.318L148.001 255.348L146.201 255.138L146.601 256.298L145.601 255.998L145.011 257.928V258.508L147.461 261.908L144.991 263.048L144.341 266.018L145.191 266.348L141.941 266.898L139.421 270.108L135.651 268.708L136.661 269.418L135.701 271.388L136.461 273.908L134.891 274.388L136.531 276.668L137.071 281.178L135.621 282.718L134.151 281.918L131.641 286.208L130.961 290.828L132.241 293.298L128.351 293.098V296.748L127.261 296.928L118.891 290.678L117.981 281.468L108.571 272.538L103.711 273.178L98.5712 269.988L97.9512 265.088L92.5012 260.978L92.7512 258.798L90.3912 257.458L89.7712 254.848L87.9512 254.298L87.2912 252.488L85.4512 252.378L85.0212 246.908L82.9712 246.658L79.8712 242.768L72.3712 240.418L71.7612 243.378L68.6812 241.288L62.6312 240.998L60.4712 234.338L56.0512 230.198L51.4312 228.838L51.3812 226.218L49.2812 222.918L50.2312 216.458L49.5312 215.218L48.1912 216.038L45.3212 214.458L42.6612 203.108L39.7412 203.318L39.1712 193.828L36.0712 193.728L31.9612 191.438L28.5012 185.998L28.3412 183.458L34.7412 179.858L34.0312 176.478L34.9512 172.988L37.0612 172.648L37.0112 170.088L38.2712 169.738L41.8612 163.238L45.7912 164.898L48.1712 162.198L50.4512 161.708L53.5612 165.198L52.8512 162.788L56.4312 162.348L55.5912 160.368L58.0112 160.808L59.1812 159.298L60.8712 159.478L60.8412 159.298L61.9112 159.968L63.2612 158.388L65.2212 158.498L69.0812 160.698L73.0412 159.248L75.8812 161.108L75.5612 160.238L76.6112 160.618L79.3512 157.978L78.8012 154.788V153.698L82.4212 153.018L82.9112 151.408L84.1012 151.868L91.2412 145.118L92.1812 146.598L96.9212 146.508L98.7312 148.578L99.2512 147.618L100.691 149.678L103.541 150.438L103.481 143.128L107.881 142.708L109.431 139.558L107.541 139.208L107.911 136.118L109.701 136.078Z"/>
</mask>
<path d="M109.701 136.078L111.751 135.518L112.661 137.768L114.581 135.668L116.071 139.028L119.461 137.428L121.341 141.258L119.831 141.388L118.511 145.488L121.721 146.118L122.801 144.198L125.401 144.058L126.461 145.548L128.951 144.168L130.871 145.598L127.821 146.228L129.641 148.228L132.401 148.698L133.901 150.778L138.951 150.638H139.461L140.771 149.758L142.771 150.468L145.761 155.038L150.001 154.918L149.641 158.428L153.211 158.248L155.731 160.298L157.601 160.208L156.361 162.758L157.831 168.508L155.461 168.538L154.571 173.688L155.641 176.438L153.851 177.918L154.681 180.748L153.191 183.458L154.881 182.888L156.461 184.448L153.041 186.028L151.251 189.418L149.031 187.538L145.351 189.568L143.201 192.468L143.971 195.318L145.741 193.948L148.211 194.898L144.751 195.778L144.551 197.238L147.271 199.578L145.591 200.508L147.131 200.898L146.421 201.878L150.571 203.028L149.071 213.498L149.721 212.628L151.501 213.448L151.661 217.878L150.471 220.098V220.598L150.141 221.648L152.011 221.948L151.591 226.388L153.611 228.888L151.471 230.558L151.031 233.768L153.891 238.538L151.971 241.718L152.251 244.038L147.741 245.988L147.511 247.648L148.891 248.538L148.151 250.518L145.711 250.318L146.351 253.278L148.321 253.318L148.001 255.348L146.201 255.138L146.601 256.298L145.601 255.998L145.011 257.928V258.508L147.461 261.908L144.991 263.048L144.341 266.018L145.191 266.348L141.941 266.898L139.421 270.108L135.651 268.708L136.661 269.418L135.701 271.388L136.461 273.908L134.891 274.388L136.531 276.668L137.071 281.178L135.621 282.718L134.151 281.918L131.641 286.208L130.961 290.828L132.241 293.298L128.351 293.098V296.748L127.261 296.928L118.891 290.678L117.981 281.468L108.571 272.538L103.711 273.178L98.5712 269.988L97.9512 265.088L92.5012 260.978L92.7512 258.798L90.3912 257.458L89.7712 254.848L87.9512 254.298L87.2912 252.488L85.4512 252.378L85.0212 246.908L82.9712 246.658L79.8712 242.768L72.3712 240.418L71.7612 243.378L68.6812 241.288L62.6312 240.998L60.4712 234.338L56.0512 230.198L51.4312 228.838L51.3812 226.218L49.2812 222.918L50.2312 216.458L49.5312 215.218L48.1912 216.038L45.3212 214.458L42.6612 203.108L39.7412 203.318L39.1712 193.828L36.0712 193.728L31.9612 191.438L28.5012 185.998L28.3412 183.458L34.7412 179.858L34.0312 176.478L34.9512 172.988L37.0612 172.648L37.0112 170.088L38.2712 169.738L41.8612 163.238L45.7912 164.898L48.1712 162.198L50.4512 161.708L53.5612 165.198L52.8512 162.788L56.4312 162.348L55.5912 160.368L58.0112 160.808L59.1812 159.298L60.8712 159.478L60.8412 159.298L61.9112 159.968L63.2612 158.388L65.2212 158.498L69.0812 160.698L73.0412 159.248L75.8812 161.108L75.5612 160.238L76.6112 160.618L79.3512 157.978L78.8012 154.788V153.698L82.4212 153.018L82.9112 151.408L84.1012 151.868L91.2412 145.118L92.1812 146.598L96.9212 146.508L98.7312 148.578L99.2512 147.618L100.691 149.678L103.541 150.438L103.481 143.128L107.881 142.708L109.431 139.558L107.541 139.208L107.911 136.118L109.701 136.078Z" stroke="white" stroke-width="2" mask="url(#path-10-inside-10_1_2)"/>
<mask id="path-11-inside-11_1_2" fill="white">
<path d="M216.541 78.7182L218.091 80.5582L218.971 78.1182L222.271 80.0282L225.011 77.9182L226.131 83.1482L228.091 83.3482L229.961 81.3682L231.211 82.4482L232.011 81.5382L235.221 82.1582L235.361 80.5282L237.741 79.5482L238.401 76.7582L243.881 78.0082L245.001 75.0182L245.921 75.7982L247.561 74.5482L249.401 71.4282L249.101 69.4582L254.411 67.0582L253.831 65.0282L255.561 64.2882L254.881 62.9082L256.371 62.6382L260.291 66.4882L260.991 64.9782L263.691 64.6782L266.761 70.2882L269.071 69.4382L271.761 71.7782L272.311 74.8982L276.301 76.2582L273.501 79.0782L276.321 83.1082L275.071 86.4482L277.251 88.2082L277.441 92.4582L275.601 93.1382L276.081 95.3682L273.851 95.1182L272.571 96.8582L275.241 98.8182L274.321 99.7182L275.091 101.368L280.321 102.178L279.681 103.758L282.811 105.088L281.961 108.408L284.701 109.718L287.251 108.618L290.971 110.368L294.981 107.738L297.411 109.978L298.011 114.158L296.571 115.218L296.881 118.028L298.631 119.428L299.091 122.558L295.461 126.598L297.081 128.148L294.761 129.568L297.831 129.628L299.591 131.148L300.841 130.388L303.571 132.638L303.271 135.178L302.971 136.088L300.101 135.268L299.421 136.508L301.971 137.588L299.771 137.738L300.681 141.178L297.711 141.558L299.671 143.398L297.571 143.298L296.621 144.608L299.421 147.428L302.171 147.708L301.911 148.828L304.771 148.558L304.801 150.358L306.211 149.758L305.241 152.118L311.311 155.298L309.961 158.138L311.821 160.138L310.341 163.678L308.201 164.298L308.211 169.448L305.381 172.778L303.561 171.618L301.281 173.508L300.811 175.218L302.831 177.458L301.381 179.088L300.861 179.048L297.821 178.058L296.491 181.298L294.671 182.328L289.041 182.798L287.161 184.908L285.951 184.378L286.321 183.208L284.791 184.028L284.411 184.018L283.281 184.648L282.791 188.238L279.661 190.608L279.351 193.658L280.051 196.418L284.451 196.958L285.741 199.788L285.131 202.738L283.291 204.018L280.361 203.018L279.841 204.378L278.661 203.998L277.861 207.388L273.811 204.398L272.241 206.008L268.231 206.718L266.181 205.328L265.251 206.368L263.551 204.728L261.351 205.058L260.431 206.478L261.961 208.658L257.781 208.768L258.231 211.758L257.131 211.828L257.161 212.568L257.131 212.788L256.651 213.358L255.751 213.618L253.411 212.358L252.131 207.698L250.211 207.488L249.271 209.258L246.381 205.528L244.001 205.128H243.291L242.211 202.858L241.771 204.498L239.971 205.138L240.301 206.528L238.771 206.248L238.071 210.378L239.341 213.008L234.541 214.438L231.581 217.118L231.291 219.288L230.151 217.068L225.471 217.238L226.111 213.678L223.501 215.438L216.001 213.448L214.851 215.438L212.931 212.978L211.441 213.988L209.591 211.668L210.261 214.658L207.841 213.798L205.991 216.118L203.671 215.268L202.841 216.098L203.081 214.378L200.511 212.908L199.901 213.618L197.651 210.598L193.351 211.088L191.791 215.368L190.571 214.588L186.361 215.668L183.811 214.478L184.151 215.968L182.471 214.818L182.021 215.848L179.401 215.788L179.461 211.898L176.391 211.458L174.981 213.058L173.711 212.738L174.171 214.338L172.651 217.218L171.251 216.458L170.671 218.238L168.361 217.308L166.761 219.668L163.091 218.818L163.771 217.828L162.091 218.008L161.331 216.378L158.541 218.388L156.851 216.098L153.221 218.628L151.681 217.878L151.521 213.448L149.741 212.628L149.091 213.508L150.591 203.038L146.441 201.878L147.151 200.908L145.601 200.518L147.281 199.588L144.561 197.248L144.771 195.788L148.221 194.908L145.751 193.958L143.981 195.328L143.211 192.488L145.361 189.588L149.041 187.548L151.261 189.428L153.051 186.038L156.481 184.458L154.901 182.898L153.211 183.468L154.701 180.758L153.871 177.928L155.661 176.448L154.591 173.698L155.481 168.548L157.851 168.518L156.391 162.768L157.631 160.218L155.761 160.298L153.241 158.258L149.671 158.438L150.031 154.918L145.791 155.048L142.811 150.478L140.801 149.768L139.501 150.648H138.981L133.931 150.788L132.431 148.708L129.661 148.228L127.841 146.238L130.901 145.608L128.971 144.178L126.481 145.558L125.421 144.068L122.821 144.208L121.741 146.128L118.531 145.498L119.851 141.398L121.361 141.268L119.481 137.428L119.131 136.218L120.891 134.798L124.251 135.148L124.961 131.488L126.761 132.178L125.841 130.068L127.011 129.228L126.551 126.698L127.721 126.778H128.051L131.841 123.118L133.921 124.008L137.391 123.038L138.121 120.498L139.621 120.528L143.041 117.198L143.051 118.668L150.231 118.558L150.531 117.078L152.121 117.418L155.931 113.018L158.501 116.208L160.661 115.868L161.791 112.078L165.551 111.688L168.871 109.048L168.541 106.858L172.101 107.368L171.241 103.108L173.551 101.298L185.661 103.548L189.101 103.138L189.331 101.498L195.251 103.788L195.771 102.818L195.931 102.848L197.661 100.178L199.491 100.928L200.241 100.458L202.101 99.6382L205.891 100.598L207.121 94.2982L205.301 89.5982L207.041 88.6682L210.901 90.5882L209.901 89.2982L211.321 88.0482L211.061 86.1782L215.541 86.7182L214.051 79.9882L215.701 79.5782L215.351 78.1882L216.541 78.7182ZM214.851 127.538L215.191 128.438L211.471 127.848L208.451 130.158L205.911 129.178L204.831 130.678L205.471 133.658L200.911 133.898L201.361 131.958L200.291 131.828L198.351 134.038L195.981 133.888L192.871 135.678L195.181 135.818L199.291 139.148L196.091 140.048L195.131 141.648L197.111 142.368L197.751 145.658L200.171 145.868L200.551 150.638L203.721 151.308L202.261 154.128L203.761 154.518L202.031 155.848L203.171 157.388L207.191 156.888L208.511 158.288L208.931 154.408L210.931 155.118L214.401 153.978L217.721 150.118L220.391 150.228L220.471 148.788L220.491 148.618L221.951 149.288L223.011 147.938L224.421 148.768L225.321 147.838L230.551 150.978L231.031 148.688L232.051 149.378L233.041 147.458L231.861 145.648L232.341 143.628L230.871 144.118L230.551 142.078L235.921 139.928L236.361 137.078L232.571 135.768L231.881 132.828L226.961 131.778L226.381 128.398L222.191 129.498L223.651 128.038L222.811 126.968L220.981 126.408L220.701 125.858L220.771 125.238L219.361 125.558L214.751 126.798L214.851 127.538Z"/>
</mask>
<path d="M216.541 78.7182L218.091 80.5582L218.971 78.1182L222.271 80.0282L225.011 77.9182L226.131 83.1482L228.091 83.3482L229.961 81.3682L231.211 82.4482L232.011 81.5382L235.221 82.1582L235.361 80.5282L237.741 79.5482L238.401 76.7582L243.881 78.0082L245.001 75.0182L245.921 75.7982L247.561 74.5482L249.401 71.4282L249.101 69.4582L254.411 67.0582L253.831 65.0282L255.561 64.2882L254.881 62.9082L256.371 62.6382L260.291 66.4882L260.991 64.9782L263.691 64.6782L266.761 70.2882L269.071 69.4382L271.761 71.7782L272.311 74.8982L276.301 76.2582L273.501 79.0782L276.321 83.1082L275.071 86.4482L277.251 88.2082L277.441 92.4582L275.601 93.1382L276.081 95.3682L273.851 95.1182L272.571 96.8582L275.241 98.8182L274.321 99.7182L275.091 101.368L280.321 102.178L279.681 103.758L282.811 105.088L281.961 108.408L284.701 109.718L287.251 108.618L290.971 110.368L294.981 107.738L297.411 109.978L298.011 114.158L296.571 115.218L296.881 118.028L298.631 119.428L299.091 122.558L295.461 126.598L297.081 128.148L294.761 129.568L297.831 129.628L299.591 131.148L300.841 130.388L303.571 132.638L303.271 135.178L302.971 136.088L300.101 135.268L299.421 136.508L301.971 137.588L299.771 137.738L300.681 141.178L297.711 141.558L299.671 143.398L297.571 143.298L296.621 144.608L299.421 147.428L302.171 147.708L301.911 148.828L304.771 148.558L304.801 150.358L306.211 149.758L305.241 152.118L311.311 155.298L309.961 158.138L311.821 160.138L310.341 163.678L308.201 164.298L308.211 169.448L305.381 172.778L303.561 171.618L301.281 173.508L300.811 175.218L302.831 177.458L301.381 179.088L300.861 179.048L297.821 178.058L296.491 181.298L294.671 182.328L289.041 182.798L287.161 184.908L285.951 184.378L286.321 183.208L284.791 184.028L284.411 184.018L283.281 184.648L282.791 188.238L279.661 190.608L279.351 193.658L280.051 196.418L284.451 196.958L285.741 199.788L285.131 202.738L283.291 204.018L280.361 203.018L279.841 204.378L278.661 203.998L277.861 207.388L273.811 204.398L272.241 206.008L268.231 206.718L266.181 205.328L265.251 206.368L263.551 204.728L261.351 205.058L260.431 206.478L261.961 208.658L257.781 208.768L258.231 211.758L257.131 211.828L257.161 212.568L257.131 212.788L256.651 213.358L255.751 213.618L253.411 212.358L252.131 207.698L250.211 207.488L249.271 209.258L246.381 205.528L244.001 205.128H243.291L242.211 202.858L241.771 204.498L239.971 205.138L240.301 206.528L238.771 206.248L238.071 210.378L239.341 213.008L234.541 214.438L231.581 217.118L231.291 219.288L230.151 217.068L225.471 217.238L226.111 213.678L223.501 215.438L216.001 213.448L214.851 215.438L212.931 212.978L211.441 213.988L209.591 211.668L210.261 214.658L207.841 213.798L205.991 216.118L203.671 215.268L202.841 216.098L203.081 214.378L200.511 212.908L199.901 213.618L197.651 210.598L193.351 211.088L191.791 215.368L190.571 214.588L186.361 215.668L183.811 214.478L184.151 215.968L182.471 214.818L182.021 215.848L179.401 215.788L179.461 211.898L176.391 211.458L174.981 213.058L173.711 212.738L174.171 214.338L172.651 217.218L171.251 216.458L170.671 218.238L168.361 217.308L166.761 219.668L163.091 218.818L163.771 217.828L162.091 218.008L161.331 216.378L158.541 218.388L156.851 216.098L153.221 218.628L151.681 217.878L151.521 213.448L149.741 212.628L149.091 213.508L150.591 203.038L146.441 201.878L147.151 200.908L145.601 200.518L147.281 199.588L144.561 197.248L144.771 195.788L148.221 194.908L145.751 193.958L143.981 195.328L143.211 192.488L145.361 189.588L149.041 187.548L151.261 189.428L153.051 186.038L156.481 184.458L154.901 182.898L153.211 183.468L154.701 180.758L153.871 177.928L155.661 176.448L154.591 173.698L155.481 168.548L157.851 168.518L156.391 162.768L157.631 160.218L155.761 160.298L153.241 158.258L149.671 158.438L150.031 154.918L145.791 155.048L142.811 150.478L140.801 149.768L139.501 150.648H138.981L133.931 150.788L132.431 148.708L129.661 148.228L127.841 146.238L130.901 145.608L128.971 144.178L126.481 145.558L125.421 144.068L122.821 144.208L121.741 146.128L118.531 145.498L119.851 141.398L121.361 141.268L119.481 137.428L119.131 136.218L120.891 134.798L124.251 135.148L124.961 131.488L126.761 132.178L125.841 130.068L127.011 129.228L126.551 126.698L127.721 126.778H128.051L131.841 123.118L133.921 124.008L137.391 123.038L138.121 120.498L139.621 120.528L143.041 117.198L143.051 118.668L150.231 118.558L150.531 117.078L152.121 117.418L155.931 113.018L158.501 116.208L160.661 115.868L161.791 112.078L165.551 111.688L168.871 109.048L168.541 106.858L172.101 107.368L171.241 103.108L173.551 101.298L185.661 103.548L189.101 103.138L189.331 101.498L195.251 103.788L195.771 102.818L195.931 102.848L197.661 100.178L199.491 100.928L200.241 100.458L202.101 99.6382L205.891 100.598L207.121 94.2982L205.301 89.5982L207.041 88.6682L210.901 90.5882L209.901 89.2982L211.321 88.0482L211.061 86.1782L215.541 86.7182L214.051 79.9882L215.701 79.5782L215.351 78.1882L216.541 78.7182ZM214.851 127.538L215.191 128.438L211.471 127.848L208.451 130.158L205.911 129.178L204.831 130.678L205.471 133.658L200.911 133.898L201.361 131.958L200.291 131.828L198.351 134.038L195.981 133.888L192.871 135.678L195.181 135.818L199.291 139.148L196.091 140.048L195.131 141.648L197.111 142.368L197.751 145.658L200.171 145.868L200.551 150.638L203.721 151.308L202.261 154.128L203.761 154.518L202.031 155.848L203.171 157.388L207.191 156.888L208.511 158.288L208.931 154.408L210.931 155.118L214.401 153.978L217.721 150.118L220.391 150.228L220.471 148.788L220.491 148.618L221.951 149.288L223.011 147.938L224.421 148.768L225.321 147.838L230.551 150.978L231.031 148.688L232.051 149.378L233.041 147.458L231.861 145.648L232.341 143.628L230.871 144.118L230.551 142.078L235.921 139.928L236.361 137.078L232.571 135.768L231.881 132.828L226.961 131.778L226.381 128.398L222.191 129.498L223.651 128.038L222.811 126.968L220.981 126.408L220.701 125.858L220.771 125.238L219.361 125.558L214.751 126.798L214.851 127.538Z" stroke="white" stroke-width="2" mask="url(#path-11-inside-11_1_2)"/>
<mask id="path-12-inside-12_1_2" fill="white">
<path d="M203.161 2.57819L205.641 1.81819L207.861 4.59819L210.651 5.57819L213.911 3.09819L217.361 4.89819L218.071 1.55819L217.891 5.08819L220.851 5.85819L221.161 7.74819L223.851 6.86819L227.131 11.1082L223.981 19.9182L225.561 20.6482L231.601 18.0582L231.831 21.7982L230.411 22.9282L228.851 28.5582L227.361 31.0282L224.221 31.4782L222.741 37.2082L220.191 37.4082L215.821 34.5682L212.951 35.2682L214.201 36.0382L213.321 38.9082L214.181 39.6882L211.491 41.7382L210.541 45.0782L211.701 46.0282L210.381 46.4882L210.161 45.5082L209.151 47.4382L208.361 47.7282L206.981 48.2582L207.031 52.3982L204.371 54.5882L203.801 57.1382L205.551 57.2882L205.351 61.3182L207.171 65.2982L209.521 66.9982L212.681 75.2982L215.421 75.7182L216.541 78.7182L215.311 78.1682L215.661 79.5582L214.011 79.9682L215.501 86.6982L211.031 86.1582L211.291 88.0282L209.871 89.2782L210.871 90.5582L207.011 88.6382L205.281 89.5682L207.101 94.2682L205.871 100.578L202.081 99.6082L200.211 100.428L199.461 100.898L197.641 100.148L195.911 102.818L195.751 102.788L195.231 103.768L189.311 101.478L189.081 103.118L185.641 103.528L173.531 101.278L171.231 103.088L172.091 107.358L168.521 106.848L168.851 109.038L165.531 111.668L161.771 112.068L160.641 115.858L158.481 116.198L155.911 113.008L152.101 117.408L150.511 117.068L150.211 118.558L143.041 118.668L143.031 117.198L139.611 120.528L138.111 120.498L137.381 123.038L133.901 124.008L131.821 123.118L128.041 126.778H127.701L126.531 126.698L127.001 129.228L125.831 130.068L126.751 132.178L124.951 131.488L124.241 135.148L120.871 134.798L119.111 136.218L119.461 137.428L116.071 139.028L114.581 135.668L112.661 137.768L111.751 135.518L109.701 136.078L107.161 132.088L104.601 132.388L103.161 131.238L103.781 130.198L103.831 130.088L107.971 130.728L106.431 127.918L108.051 127.958L108.381 126.408L107.301 126.368L106.041 121.108L103.511 120.768L105.481 118.058L102.431 115.848L103.771 114.998L103.571 111.738L101.891 111.358L103.511 108.158L102.711 105.168H102.931L103.851 102.738L101.371 99.1482L99.0312 100.728L94.5512 99.3482L92.8912 101.098L91.3012 99.4282L91.3312 96.1182L89.7312 96.3782L88.2212 94.9082L86.7012 96.1382L84.3012 94.3982L80.1612 95.0182L77.7412 92.9782L77.1512 91.9082L80.6412 90.9482L84.3012 86.7682L85.3112 78.0782L90.1612 79.5182L94.3312 76.8482L94.9212 78.5182L100.071 78.9882L104.771 66.4182L107.591 66.3882L108.711 68.8782L111.601 68.1782L111.831 64.2682L116.481 61.4182L116.061 58.1982L117.741 58.6982L119.981 62.9782L124.631 64.8282L127.291 60.9882L129.871 59.7182L128.851 57.6882L131.521 54.3282L130.031 50.3082L132.921 49.0082L136.921 49.6482L142.531 46.5882L146.391 48.6382L148.161 46.2882L149.401 47.2382L152.731 45.9982L159.851 47.1682L160.361 45.0182L163.631 44.7482L162.611 41.2882L163.811 37.8082L167.171 38.2182L168.701 35.7482L171.901 34.0382L175.541 36.2782L179.801 35.1382L180.851 33.1382L193.091 28.2882L193.941 24.3982L196.951 23.2982L200.301 24.8782L204.421 23.6382L204.481 22.3382L207.841 22.8482L208.761 17.4182L200.961 14.7582L201.531 14.0082L200.271 13.1682L202.561 12.0782L202.261 10.4482L198.531 11.5782L196.321 9.99819L196.411 7.06819L198.251 6.18819L198.701 4.35819L197.591 2.64819L201.311 0.328186L203.161 2.57819Z"/>
</mask>
<path d="M203.161 2.57819L205.641 1.81819L207.861 4.59819L210.651 5.57819L213.911 3.09819L217.361 4.89819L218.071 1.55819L217.891 5.08819L220.851 5.85819L221.161 7.74819L223.851 6.86819L227.131 11.1082L223.981 19.9182L225.561 20.6482L231.601 18.0582L231.831 21.7982L230.411 22.9282L228.851 28.5582L227.361 31.0282L224.221 31.4782L222.741 37.2082L220.191 37.4082L215.821 34.5682L212.951 35.2682L214.201 36.0382L213.321 38.9082L214.181 39.6882L211.491 41.7382L210.541 45.0782L211.701 46.0282L210.381 46.4882L210.161 45.5082L209.151 47.4382L208.361 47.7282L206.981 48.2582L207.031 52.3982L204.371 54.5882L203.801 57.1382L205.551 57.2882L205.351 61.3182L207.171 65.2982L209.521 66.9982L212.681 75.2982L215.421 75.7182L216.541 78.7182L215.311 78.1682L215.661 79.5582L214.011 79.9682L215.501 86.6982L211.031 86.1582L211.291 88.0282L209.871 89.2782L210.871 90.5582L207.011 88.6382L205.281 89.5682L207.101 94.2682L205.871 100.578L202.081 99.6082L200.211 100.428L199.461 100.898L197.641 100.148L195.911 102.818L195.751 102.788L195.231 103.768L189.311 101.478L189.081 103.118L185.641 103.528L173.531 101.278L171.231 103.088L172.091 107.358L168.521 106.848L168.851 109.038L165.531 111.668L161.771 112.068L160.641 115.858L158.481 116.198L155.911 113.008L152.101 117.408L150.511 117.068L150.211 118.558L143.041 118.668L143.031 117.198L139.611 120.528L138.111 120.498L137.381 123.038L133.901 124.008L131.821 123.118L128.041 126.778H127.701L126.531 126.698L127.001 129.228L125.831 130.068L126.751 132.178L124.951 131.488L124.241 135.148L120.871 134.798L119.111 136.218L119.461 137.428L116.071 139.028L114.581 135.668L112.661 137.768L111.751 135.518L109.701 136.078L107.161 132.088L104.601 132.388L103.161 131.238L103.781 130.198L103.831 130.088L107.971 130.728L106.431 127.918L108.051 127.958L108.381 126.408L107.301 126.368L106.041 121.108L103.511 120.768L105.481 118.058L102.431 115.848L103.771 114.998L103.571 111.738L101.891 111.358L103.511 108.158L102.711 105.168H102.931L103.851 102.738L101.371 99.1482L99.0312 100.728L94.5512 99.3482L92.8912 101.098L91.3012 99.4282L91.3312 96.1182L89.7312 96.3782L88.2212 94.9082L86.7012 96.1382L84.3012 94.3982L80.1612 95.0182L77.7412 92.9782L77.1512 91.9082L80.6412 90.9482L84.3012 86.7682L85.3112 78.0782L90.1612 79.5182L94.3312 76.8482L94.9212 78.5182L100.071 78.9882L104.771 66.4182L107.591 66.3882L108.711 68.8782L111.601 68.1782L111.831 64.2682L116.481 61.4182L116.061 58.1982L117.741 58.6982L119.981 62.9782L124.631 64.8282L127.291 60.9882L129.871 59.7182L128.851 57.6882L131.521 54.3282L130.031 50.3082L132.921 49.0082L136.921 49.6482L142.531 46.5882L146.391 48.6382L148.161 46.2882L149.401 47.2382L152.731 45.9982L159.851 47.1682L160.361 45.0182L163.631 44.7482L162.611 41.2882L163.811 37.8082L167.171 38.2182L168.701 35.7482L171.901 34.0382L175.541 36.2782L179.801 35.1382L180.851 33.1382L193.091 28.2882L193.941 24.3982L196.951 23.2982L200.301 24.8782L204.421 23.6382L204.481 22.3382L207.841 22.8482L208.761 17.4182L200.961 14.7582L201.531 14.0082L200.271 13.1682L202.561 12.0782L202.261 10.4482L198.531 11.5782L196.321 9.99819L196.411 7.06819L198.251 6.18819L198.701 4.35819L197.591 2.64819L201.311 0.328186L203.161 2.57819Z" stroke="white" stroke-width="2" mask="url(#path-12-inside-12_1_2)"/>
<mask id="path-13-inside-13_1_2" fill="white">
<path d="M308.211 169.448L315.221 173.978L316.881 176.958L321.001 175.798L321.791 177.178L323.481 175.908L325.411 176.538L325.571 178.028L327.341 177.628L329.981 181.008L334.011 180.808L333.371 184.178L336.261 183.868L340.121 186.828L341.391 185.808L339.961 189.478L346.431 194.088L350.211 193.308L349.511 191.928L351.141 191.508L350.981 190.478V189.778L353.811 186.558L355.311 189.488L358.391 189.758H358.971L360.851 190.578L363.081 194.268L366.451 193.388L367.141 194.978L371.261 194.828L378.341 200.288L378.051 201.828L379.611 203.138L381.031 202.528L385.181 204.118L389.011 208.438L389.071 211.028L387.381 212.638L388.711 214.408L390.691 214.348L391.511 216.538L388.551 220.788L385.661 219.898L388.891 223.148L386.651 227.688L387.091 231.398L388.411 231.678L387.261 235.738L388.621 239.328L386.731 241.098H385.941L379.821 244.098L379.011 247.858L377.091 248.728L376.981 250.858L379.661 253.398L376.481 254.088L375.111 259.638L378.391 261.268L378.351 263.378L374.631 264.858L374.031 266.218L375.201 267.348L374.901 269.998L377.111 268.948L376.471 270.398L378.021 271.078L377.771 272.908L376.011 275.068L373.831 275.408L372.581 279.078L366.201 279.648L365.321 280.768L366.951 282.448L361.631 283.408L361.401 284.558L356.581 282.248L355.601 284.548L353.261 285.158L350.791 283.528L350.051 281.098L347.441 281.828L347.641 283.488L346.161 284.808L343.231 283.488L342.341 287.588L337.201 287.348L335.031 290.908L331.821 291.498L329.201 296.148L327.111 293.258L323.061 293.808L321.911 297.338L319.731 296.828L318.631 294.508L316.271 294.908L316.251 295.888L315.111 294.868L315.691 293.508L310.681 292.108L310.641 289.638L309.241 289.058L307.961 290.308L307.361 289.178L311.541 285.328L310.791 283.678L312.841 282.928L312.121 280.858L313.381 280.418L313.271 278.288L317.201 278.538L316.631 277.238L317.671 276.858L315.971 275.218L316.781 274.448L313.521 272.998L315.021 272.878L314.521 271.138L312.431 270.208L311.671 271.638L309.991 270.828L308.711 272.468L305.541 272.438L303.151 270.568L301.601 272.628L293.701 265.928L294.951 262.248L294.151 259.008L287.351 259.198L286.061 260.558L286.421 258.818L280.501 256.288L278.241 259.058L276.751 258.358H275.881L274.421 254.768L272.211 255.678L270.061 253.998L272.361 254.558L272.701 251.728L268.911 251.428L265.971 247.988L262.501 251.178L261.361 250.938L254.591 242.918L257.231 239.768L253.151 236.878L255.521 230.208L254.261 229.738L256.601 225.768L255.891 223.288L257.221 222.038L254.261 217.678L254.771 216.348L258.061 216.378L257.141 212.788L257.171 212.568L257.141 211.828L258.241 211.768L257.791 208.778L261.971 208.658L260.441 206.478L261.361 205.058L263.561 204.728L265.261 206.368L266.191 205.328L268.241 206.718L272.251 206.008L273.821 204.388L277.871 207.388L278.681 203.988L279.861 204.368L280.381 202.998L283.311 204.008L285.141 202.718L285.761 199.768L284.461 196.948L280.061 196.398L279.371 193.638L279.671 190.588L282.801 188.218L283.291 184.638L284.421 184.008L284.801 184.018L286.331 183.198L285.961 184.368L287.171 184.898L289.051 182.788L294.681 182.318L296.501 181.288L297.831 178.048L300.871 179.038L301.381 179.078L302.831 177.438L300.811 175.208L301.281 173.498L303.561 171.618L305.381 172.778L308.211 169.448Z"/>
</mask>
<path d="M308.211 169.448L315.221 173.978L316.881 176.958L321.001 175.798L321.791 177.178L323.481 175.908L325.411 176.538L325.571 178.028L327.341 177.628L329.981 181.008L334.011 180.808L333.371 184.178L336.261 183.868L340.121 186.828L341.391 185.808L339.961 189.478L346.431 194.088L350.211 193.308L349.511 191.928L351.141 191.508L350.981 190.478V189.778L353.811 186.558L355.311 189.488L358.391 189.758H358.971L360.851 190.578L363.081 194.268L366.451 193.388L367.141 194.978L371.261 194.828L378.341 200.288L378.051 201.828L379.611 203.138L381.031 202.528L385.181 204.118L389.011 208.438L389.071 211.028L387.381 212.638L388.711 214.408L390.691 214.348L391.511 216.538L388.551 220.788L385.661 219.898L388.891 223.148L386.651 227.688L387.091 231.398L388.411 231.678L387.261 235.738L388.621 239.328L386.731 241.098H385.941L379.821 244.098L379.011 247.858L377.091 248.728L376.981 250.858L379.661 253.398L376.481 254.088L375.111 259.638L378.391 261.268L378.351 263.378L374.631 264.858L374.031 266.218L375.201 267.348L374.901 269.998L377.111 268.948L376.471 270.398L378.021 271.078L377.771 272.908L376.011 275.068L373.831 275.408L372.581 279.078L366.201 279.648L365.321 280.768L366.951 282.448L361.631 283.408L361.401 284.558L356.581 282.248L355.601 284.548L353.261 285.158L350.791 283.528L350.051 281.098L347.441 281.828L347.641 283.488L346.161 284.808L343.231 283.488L342.341 287.588L337.201 287.348L335.031 290.908L331.821 291.498L329.201 296.148L327.111 293.258L323.061 293.808L321.911 297.338L319.731 296.828L318.631 294.508L316.271 294.908L316.251 295.888L315.111 294.868L315.691 293.508L310.681 292.108L310.641 289.638L309.241 289.058L307.961 290.308L307.361 289.178L311.541 285.328L310.791 283.678L312.841 282.928L312.121 280.858L313.381 280.418L313.271 278.288L317.201 278.538L316.631 277.238L317.671 276.858L315.971 275.218L316.781 274.448L313.521 272.998L315.021 272.878L314.521 271.138L312.431 270.208L311.671 271.638L309.991 270.828L308.711 272.468L305.541 272.438L303.151 270.568L301.601 272.628L293.701 265.928L294.951 262.248L294.151 259.008L287.351 259.198L286.061 260.558L286.421 258.818L280.501 256.288L278.241 259.058L276.751 258.358H275.881L274.421 254.768L272.211 255.678L270.061 253.998L272.361 254.558L272.701 251.728L268.911 251.428L265.971 247.988L262.501 251.178L261.361 250.938L254.591 242.918L257.231 239.768L253.151 236.878L255.521 230.208L254.261 229.738L256.601 225.768L255.891 223.288L257.221 222.038L254.261 217.678L254.771 216.348L258.061 216.378L257.141 212.788L257.171 212.568L257.141 211.828L258.241 211.768L257.791 208.778L261.971 208.658L260.441 206.478L261.361 205.058L263.561 204.728L265.261 206.368L266.191 205.328L268.241 206.718L272.251 206.008L273.821 204.388L277.871 207.388L278.681 203.988L279.861 204.368L280.381 202.998L283.311 204.008L285.141 202.718L285.761 199.768L284.461 196.948L280.061 196.398L279.371 193.638L279.671 190.588L282.801 188.218L283.291 184.638L284.421 184.008L284.801 184.018L286.331 183.198L285.961 184.368L287.171 184.898L289.051 182.788L294.681 182.318L296.501 181.288L297.831 178.048L300.871 179.038L301.381 179.078L302.831 177.438L300.811 175.208L301.281 173.498L303.561 171.618L305.381 172.778L308.211 169.448Z" stroke="white" stroke-width="2" mask="url(#path-13-inside-13_1_2)"/>
<path d="M101 177.396C102.168 177.396 103.165 176.983 103.991 176.157C104.816 175.332 105.229 174.335 105.229 173.167C105.229 171.999 104.816 171.002 103.991 170.176C103.165 169.35 102.168 168.937 101 168.937C99.8319 168.937 98.8351 169.35 98.0094 170.176C97.1837 171.002 96.7708 171.999 96.7708 173.167C96.7708 174.335 97.1837 175.332 98.0094 176.157C98.8351 176.983 99.8319 177.396 101 177.396ZM101 202.167C94.5153 196.649 89.6719 191.523 86.4698 186.791C83.2677 182.058 81.6667 177.678 81.6667 173.65C81.6667 167.608 83.6101 162.795 87.4969 159.21C91.3837 155.626 95.8847 153.833 101 153.833C106.115 153.833 110.616 155.626 114.503 159.21C118.39 162.795 120.333 167.608 120.333 173.65C120.333 177.678 118.732 182.058 115.53 186.791C112.328 191.523 107.485 196.649 101 202.167Z" fill="white"/>
<path d="M215 119.396C216.168 119.396 217.165 118.983 217.991 118.157C218.816 117.332 219.229 116.335 219.229 115.167C219.229 113.999 218.816 113.002 217.991 112.176C217.165 111.35 216.168 110.938 215 110.938C213.832 110.938 212.835 111.35 212.009 112.176C211.184 113.002 210.771 113.999 210.771 115.167C210.771 116.335 211.184 117.332 212.009 118.157C212.835 118.983 213.832 119.396 215 119.396ZM215 144.167C208.515 138.649 203.672 133.523 200.47 128.791C197.268 124.058 195.667 119.678 195.667 115.65C195.667 109.608 197.61 104.795 201.497 101.21C205.384 97.6257 209.885 95.8333 215 95.8333C220.115 95.8333 224.616 97.6257 228.503 101.21C232.39 104.795 234.333 109.608 234.333 115.65C234.333 119.678 232.732 124.058 229.53 128.791C226.328 133.523 221.485 138.649 215 144.167Z" fill="white"/>
<path d="M500.5 241.906C501.648 241.906 502.628 241.501 503.439 240.689C504.251 239.878 504.656 238.898 504.656 237.75C504.656 236.602 504.251 235.622 503.439 234.811C502.628 233.999 501.648 233.594 500.5 233.594C499.352 233.594 498.372 233.999 497.561 234.811C496.749 235.622 496.344 236.602 496.344 237.75C496.344 238.898 496.749 239.878 497.561 240.689C498.372 241.501 499.352 241.906 500.5 241.906ZM500.5 266.25C494.127 260.827 489.367 255.79 486.22 251.139C483.073 246.488 481.5 242.183 481.5 238.225C481.5 232.288 483.41 227.557 487.23 224.034C491.049 220.511 495.473 218.75 500.5 218.75C505.527 218.75 509.951 220.511 513.77 224.034C517.59 227.557 519.5 232.288 519.5 238.225C519.5 242.183 517.927 246.488 514.78 251.139C511.633 255.79 506.873 260.827 500.5 266.25Z" fill="white"/>
<path d="M398 248.396C399.168 248.396 400.165 247.983 400.991 247.157C401.816 246.332 402.229 245.335 402.229 244.167C402.229 242.999 401.816 242.002 400.991 241.176C400.165 240.35 399.168 239.937 398 239.937C396.832 239.937 395.835 240.35 395.009 241.176C394.184 242.002 393.771 242.999 393.771 244.167C393.771 245.335 394.184 246.332 395.009 247.157C395.835 247.983 396.832 248.396 398 248.396ZM398 273.167C391.515 267.649 386.672 262.523 383.47 257.791C380.268 253.058 378.667 248.678 378.667 244.65C378.667 238.608 380.61 233.795 384.497 230.21C388.384 226.626 392.885 224.833 398 224.833C403.115 224.833 407.616 226.626 411.503 230.21C415.39 233.795 417.333 238.608 417.333 244.65C417.333 248.678 415.732 253.058 412.53 257.791C409.328 262.523 404.485 267.649 398 273.167Z" fill="white"/>
</g>
<defs>
<clipPath id="clip0_1_2">
<rect width="612.46" height="350.618" fill="white"/>
</clipPath>
</defs>
</svg>
