<svg id="Group_881" data-name="Group 881" xmlns="http://www.w3.org/2000/svg" width="162.04" height="36.451" viewBox="0 0 162.04 36.451">
  <g id="Group_880" data-name="Group 880">
    <path id="Path_3012" data-name="Path 3012" d="M211.4,147.451c-5.075-1.615-6.219-5.5-6.153-10.272.1-7.25-.009-14.5.057-21.754a32.675,32.675,0,0,1,.629-4.425h7.29q-.031,12.853-.061,25.705a7.676,7.676,0,0,0,1.474,4.481c1.089,1.664.934,4.142,1.321,6.265Z" transform="translate(-177.849 -111)" fill="#fff"/>
    <path id="Path_3013" data-name="Path 3013" d="M319.964,148.441c.625-2.644-.825-6,4.229-7.4-2.759-1.488-4.118-2.322-5.56-2.972-1.648-.743-3.413-1.231-5.052-1.991a6.605,6.605,0,0,1-4.254-6.393,6.726,6.726,0,0,1,4.624-6.6,34.986,34.986,0,0,1,3.39-.929c1.531,2.9.464,5.208-1.526,7.863,3.485,1.381,6.379,2.489,9.24,3.673,4.094,1.7,4.969,3.271,4.768,7.653a5.955,5.955,0,0,1-3.484,5.4c-1.189.613-2.426,1.133-3.641,1.694Z" transform="translate(-187.085 -111.99)" fill="#fff"/>
    <path id="Path_3014" data-name="Path 3014" d="M225.553,148.542c-3.668-2.356-4.808-5.719-4.559-10,.288-4.937.067-9.9.067-15.24h7.81V140.77l4.538,1.176c.072,1.194.521,2.63.124,3.772-.383,1.1-1.639,1.9-2.512,2.824Z" transform="translate(-179.244 -112.092)" fill="#fff"/>
    <path id="Path_3015" data-name="Path 3015" d="M258.365,148.468c-.754-.446-1.477-.956-2.266-1.326a6.716,6.716,0,0,1-4.2-6.43c-.035-3.327-.084-6.657-.013-9.982.121-5.65,2.34-7.78,8.621-8.262a6.33,6.33,0,0,1,.009,5.917c-2.058,4.447-1.761,8.9-.212,13.492.693,2.053.559,4.386.8,6.591Z" transform="translate(-181.984 -112.018)" fill="#fff"/>
    <path id="Path_3016" data-name="Path 3016" d="M179.572,149.521c-2.41-2.074-4.653-4.091-4.366-7.837.314-4.091,1.995-6.56,6.031-7.2a40.466,40.466,0,0,1,6.06-.051l.278,3.881c-1.32,1.714-4.74.149-4.44,3.246.252,2.593,2.512,1.366,4.052,1.643,1.084,2.7.49,4.842-2.148,6.321Z" transform="translate(-175.182 -113.07)" fill="#fff"/>
    <path id="Path_3017" data-name="Path 3017" d="M351.745,148.368c-2.418-.056-4.857.071-7.249-.208-3.725-.435-5.4-2.223-5.563-5.919-.154-3.441-.033-6.895-.033-10.634h7.315c0,1.8-.023,3.552,0,5.305.075,5.018.467,5.37,5.527,5.077Z" transform="translate(-189.705 -112.829)" fill="#fff"/>
    <path id="Path_3018" data-name="Path 3018" d="M284.54,149.519c-3.183-1.686-4.936-4.11-4.7-7.933.256-4.122,1.977-6.478,6.062-7.134a37.745,37.745,0,0,1,5.652-.046l.314,3.526c-1.749,1.333-3.963,2.165-4.185,3.366-.5,2.666,2.759,1.4,3.85,2.619.991,2.314.166,4.078-1.525,5.6Z" transform="translate(-184.467 -113.069)" fill="#fff"/>
    <path id="Path_3019" data-name="Path 3019" d="M351.337,127.888H334.6c-.124-1.789-.221-3.2-.345-4.995,4.488.015,4.151-3.316,4.584-6.427h6.242c.6,1.785.8,3.907,1.931,5.222.735.853,2.835.529,4.324.733Z" transform="translate(-189.297 -111.485)" fill="#fff"/>
    <path id="Path_3020" data-name="Path 3020" d="M264.974,149.962c-1.041-3.87,1.141-6.894,2.859-10.39a31.086,31.086,0,0,1,3.271-.272c3.484.043,3.94.731,3.27,4.039A6.935,6.935,0,0,1,270,148.7a24.583,24.583,0,0,0-2.3,1.261Z" transform="translate(-183.125 -113.511)" fill="#fff"/>
    <path id="Path_3021" data-name="Path 3021" d="M315.4,150.142c-1.043-.561-2.1-1.1-3.126-1.687-2.928-1.657-3.353-2.685-2.823-6.709,5.621-1.341,8.32.577,8.615,6.129.04.755.046,1.511.067,2.266Z" transform="translate(-187.079 -113.692)" fill="#fff"/>
    <path id="Path_3022" data-name="Path 3022" d="M281.375,130.9c-.417-5.153.485-6.845,4.511-8.026a18.287,18.287,0,0,1,12.015.319c2.3.894,3.842,2.566,3.88,5.1.092,6.176.03,12.353.03,18.928h-6.88c-.123-1.678-.317-3.277-.344-4.88-.06-3.632-.009-7.267-.061-10.9-.026-1.769-.518-3.4-2.506-3.826a3.255,3.255,0,0,0-4.013,2.006C286.5,132.6,283.894,130.925,281.375,130.9Z" transform="translate(-184.596 -111.977)" fill="#fff"/>
    <path id="Path_3023" data-name="Path 3023" d="M237.66,123.214h7.176v24.039H237.66Z" transform="translate(-180.726 -112.084)" fill="#fff"/>
    <path id="Path_3024" data-name="Path 3024" d="M274.371,131.646h-6.455c-3.117-5.442-3.117-5.442-2.513-8.8C271.366,122.074,274.486,124.931,274.371,131.646Z" transform="translate(-183.16 -112.04)" fill="#fff"/>
    <path id="Path_3025" data-name="Path 3025" d="M324.561,130.99c-1.218-2.854-4.6-4.549-2.932-8.137,5.5-.872,8.638,1.7,8.9,7.658-.946.156-1.924.374-2.912.462C326.727,131.052,325.821,130.99,324.561,130.99Z" transform="translate(-188.136 -112.037)" fill="#fff"/>
    <path id="Path_3026" data-name="Path 3026" d="M176.48,130.851c-.056-5.078.879-7.023,4.96-7.814a36.263,36.263,0,0,1,10.7-.171c3.427.376,5.313,2.983,5.424,6.336.2,5.871.054,11.754.054,18.053h-7.728c0-3.411,0-6.554,0-9.7,0-2.272-.026-4.543-.02-6.814,0-1.54-.605-2.876-2.158-2.982-1.226-.084-3.244.209-3.63.977C182.262,132.37,179.519,131.3,176.48,130.851Z" transform="translate(-175.297 -112.025)" fill="#fff"/>
  </g>
</svg>
