<svg xmlns="http://www.w3.org/2000/svg" width="239.172" height="62" viewBox="0 0 239.172 62">
  <g id="Group_1127" data-name="Group 1127" transform="translate(-305 -364)">
    <path id="Path_282" data-name="Path 282" d="M31.564-203.037a3.853,3.853,0,0,0-1.154-.852,25.749,25.749,0,0,0-2.473-1.237,23.949,23.949,0,0,0-3.243-1.154,12.942,12.942,0,0,0-3.518-.495,6.705,6.705,0,0,0-3.573.8,2.69,2.69,0,0,0-1.264,2.446,2.533,2.533,0,0,0,.962,2.089,8.7,8.7,0,0,0,2.776,1.347q1.814.577,4.452,1.347a32.761,32.761,0,0,1,6.486,2.391,10.762,10.762,0,0,1,4.2,3.6,10.4,10.4,0,0,1,1.457,5.826,11.789,11.789,0,0,1-1.209,5.579,10.085,10.085,0,0,1-3.27,3.683,14.126,14.126,0,0,1-4.7,2.034,23.274,23.274,0,0,1-5.442.632,30.91,30.91,0,0,1-5.854-.577,32.907,32.907,0,0,1-5.744-1.649A26.324,26.324,0,0,1,5.4-179.841l3.958-7.86a7.25,7.25,0,0,0,1.429,1.017,26.251,26.251,0,0,0,3,1.539,28.032,28.032,0,0,0,3.985,1.4,16.719,16.719,0,0,0,4.452.6,6.7,6.7,0,0,0,3.6-.77A2.424,2.424,0,0,0,27-186.053a2.622,2.622,0,0,0-1.237-2.309,13.2,13.2,0,0,0-3.353-1.484q-2.116-.66-4.865-1.484a27.973,27.973,0,0,1-5.909-2.473,9.248,9.248,0,0,1-3.463-3.353A9.881,9.881,0,0,1,7.049-202.1,11.957,11.957,0,0,1,9-209.056a12.224,12.224,0,0,1,5.249-4.287,17.623,17.623,0,0,1,7.2-1.457,21.143,21.143,0,0,1,5.3.66,30.554,30.554,0,0,1,4.782,1.649q2.226.989,3.985,1.979Zm24.79-11.433h9.729l8.193,23.841,5.218,15.185H70.26L68.2-181.4l-.961-2.779H55.089l-2.968,8.74H42.887Zm4.837,9.069-4.672,15.006,10.718,6.266Zm25.449,23.2,19.9-24.35H87.41l7.784-7.915h22.173v6.761l-17.3,22.213L98.4-183.359h19.183l-4.6,4.891-3.051,3.024H86.64Zm51.888-32.265h9.729l11.152,32.641-6.975,6.385-3.023-8.74H137.264l-2.968,8.74h-9.234Zm9.4,24.075L143.365-205.4l-4.672,15.006Zm23.086,14.951V-214.47h26.494l-8.057,7.915h-9.422v8.41h14.4v7.311h-14.4v15.391Z" transform="translate(299.6 591.112)" fill="#444c60"/>
    <text id="O" transform="translate(503.172 414)" fill="#e3a81c" font-size="53" font-family="Raleway-ExtraBold, Raleway" font-weight="800" letter-spacing="0.1em"><tspan x="0" y="0">O</tspan></text>
    <path id="Path_283" data-name="Path 283" d="M-220.318,2681.62l2.3,6.832h-9.427Z" transform="translate(679.236 -2272.801)" fill="#e3a81c"/>
    <path id="Path_284" data-name="Path 284" d="M-16.3,2505.935l-8.09,7.905h8.09Z" transform="translate(513.379 -2129.304)" fill="#e3a81c"/>
    <path id="Path_285" data-name="Path 285" d="M-453.13,2675.694l-8.226,7.985h8.226Z" transform="translate(870.287 -2267.96)" fill="#e3a81c"/>
  </g>
</svg>
