<svg width="14" height="16" viewBox="0 0 14 16" fill="none" xmlns="http://www.w3.org/2000/svg">
<path fill-rule="evenodd" clip-rule="evenodd" d="M7.5 0.134005C7.34798 0.0462368 7.17554 3.05176e-05 7 3.05176e-05C6.82446 3.05176e-05 6.65202 0.0462368 6.5 0.134005L0.5 3.711C0.347985 3.79877 0.221749 3.92501 0.133981 4.07702C0.0462129 4.22903 4.45922e-06 4.40147 0 4.57701V11.423C4.45922e-06 11.5985 0.0462129 11.771 0.133981 11.923C0.221749 12.075 0.347985 12.2012 0.5 12.289L6.5 15.866C6.65202 15.9538 6.82446 16 7 16C7.17554 16 7.34798 15.9538 7.5 15.866L13.5 12.289C13.652 12.2012 13.7783 12.075 13.866 11.923C13.9538 11.771 14 11.5985 14 11.423V4.57701C14 4.40147 13.9538 4.22903 13.866 4.07702C13.7783 3.92501 13.652 3.79877 13.5 3.711L7.5 0.134005Z" fill="#35B572"/>
<path d="M9.02294 3.80202C9.55431 3.8036 10.0635 4.01539 10.4392 4.39112C10.8149 4.76686 11.0267 5.276 11.0283 5.80737V9.81764C11.0267 10.349 10.8149 10.8582 10.4392 11.2339C10.0635 11.6096 9.55431 11.8214 9.02294 11.823H5.01267C4.4813 11.8214 3.97216 11.6096 3.59642 11.2339C3.22069 10.8582 3.0089 10.349 3.00732 9.81764V5.80737C3.0089 5.276 3.22069 4.76686 3.59642 4.39112C3.97216 4.01539 4.4813 3.8036 5.01267 3.80202H9.02294ZM9.02294 3.00001H5.01267C3.46859 3.00001 2.2053 4.26329 2.2053 5.80737V9.81764C2.2053 11.3617 3.46859 12.625 5.01267 12.625H9.02294C10.567 12.625 11.8303 11.3617 11.8303 9.81764V5.80737C11.8303 4.26329 10.567 3.00001 9.02294 3.00001Z" fill="white"/>
<path d="M9.6245 5.80736C9.50553 5.80736 9.38922 5.77208 9.29029 5.70598C9.19137 5.63988 9.11426 5.54593 9.06873 5.43601C9.0232 5.32609 9.01129 5.20513 9.0345 5.08844C9.05771 4.97175 9.11501 4.86456 9.19914 4.78043C9.28327 4.6963 9.39045 4.63901 9.50714 4.6158C9.62384 4.59259 9.74479 4.6045 9.85471 4.65003C9.96463 4.69556 10.0586 4.77266 10.1247 4.87159C10.1908 4.97052 10.2261 5.08682 10.2261 5.2058C10.2262 5.28485 10.2108 5.36315 10.1806 5.43621C10.1505 5.50927 10.1061 5.57565 10.0503 5.63155C9.99436 5.68744 9.92798 5.73175 9.85491 5.76192C9.78185 5.79209 9.70355 5.80753 9.6245 5.80736ZM7.01781 6.20826C7.33509 6.20826 7.64526 6.30235 7.90907 6.47862C8.17289 6.6549 8.37851 6.90545 8.49993 7.19858C8.62135 7.49172 8.65312 7.81428 8.59122 8.12547C8.52932 8.43666 8.37653 8.72251 8.15217 8.94687C7.92782 9.17122 7.64197 9.32401 7.33078 9.38591C7.01958 9.44781 6.69703 9.41604 6.40389 9.29462C6.11075 9.1732 5.86021 8.96758 5.68393 8.70377C5.50765 8.43995 5.41357 8.12979 5.41357 7.8125C5.41402 7.38717 5.58319 6.97939 5.88394 6.67863C6.18469 6.37788 6.59247 6.20872 7.01781 6.20826ZM7.01781 5.40625C6.54189 5.40625 6.07667 5.54737 5.68096 5.81178C5.28526 6.07618 4.97684 6.45198 4.79472 6.89167C4.6126 7.33135 4.56495 7.81517 4.65779 8.28194C4.75064 8.7487 4.97981 9.17746 5.31633 9.51398C5.65285 9.8505 6.0816 10.0797 6.54837 10.1725C7.01514 10.2654 7.49895 10.2177 7.93864 10.0356C8.37832 9.85346 8.75413 9.54505 9.01853 9.14934C9.28293 8.75363 9.42406 8.28841 9.42406 7.8125C9.42406 7.17432 9.17054 6.56228 8.71928 6.11102C8.26802 5.65976 7.65598 5.40625 7.01781 5.40625Z" fill="white"/>
</svg>
